<?xml version="1.0" encoding="utf-8"?>
<svg width="549" height="551.332" viewBox="0 0 549 551.332" fill="none" xmlns="http://www.w3.org/2000/svg">
  <g id="SingleElement">
    <path id="Oval" d="M0 256C0 114.615 114.615 0 256 0C397.385 0 512 114.615 512 256C512 397.385 397.385 512 256 512C114.615 512 0 397.385 0 256Z" fill="#FFFFFF" fill-rule="evenodd" transform="translate(0 17)" />
    <g id="Group" transform="matrix(0.777 0.629 -0.629 0.777 310.814 0)">
      <path id="Path" d="M1.36375 19.5134C3.03483 18.4314 2.6313 22.6795 5.82194 22.8429C12.1498 16.7403 17.8896 4.30618 2.73245 0C-1.55133 3.21408 0.192282 15.4792 1.36375 19.5134C1.36375 19.5134 1.36375 19.5134 1.36375 19.5134C1.36375 19.5134 1.36375 19.5134 1.36375 19.5134Z" fill="#A06619" transform="translate(0 423.844)" />
      <path id="Path#1" d="M4.76837e-07 0.46936C4.76837e-07 0.46936 0.172075 0.956848 4.76837e-07 1.18631C9.44954 4.26913 6.47417 16.4716 2.86785 22.6947C0.910543 22.752 0.97507 18.6869 0 19.8269C0.272449 20.9669 0.157733 21.6264 0.716964 22.6947C1.11846 23.261 2.32296 23.7414 2.86785 24.1285C4.19423 22.0064 4.45234 19.2246 6.45266 17.676C6.45266 17.676 6.39532 17.3104 6.45266 16.9591C7.04773 13.36 7.62132 9.80402 6.45266 6.2049C5.64965 4.54877 2.76747 -1.75317 4.76837e-07 0.46936C4.76837e-07 0.46936 4.76837e-07 0.46936 4.76837e-07 0.46936C4.76837e-07 0.46936 4.76837e-07 0.46936 4.76837e-07 0.46936Z" fill="none" stroke-width="0.3" stroke="#B37C13" transform="translate(3.53 424.057)" />
      <path id="Path#2" d="M1.32776 18.6406C2.30283 17.5006 2.23831 21.5656 4.19562 21.5083C7.80193 15.2852 10.7773 3.08286 1.32776 0C-1.15293 3.34091 0.438725 14.8838 1.32776 18.6406C1.32776 18.6406 1.32776 18.6406 1.32776 18.6406C1.32776 18.6406 1.32776 18.6406 1.32776 18.6406Z" fill="none" stroke-width="0.3" stroke="#A06619" transform="translate(3.53 427.817)" />
      <path id="Path#3" d="M0 10.7542C2.49504 7.68567 1.5128 3.13306 0 0C1.16866 3.59909 0.595085 7.15509 0 10.7542C0 10.7542 0 10.7542 0 10.7542C0 10.7542 0 10.7542 0 10.7542Z" fill="none" stroke-width="0.3" stroke="#D39D03" transform="translate(11.051 431.577)" />
      <path id="Path#4" d="M0 5.01862C0.544889 6.0654 1.26903 6.431 2.15089 7.16949C1.95014 5.91483 5.35571 1.6203 5.73569 0C3.73538 1.54858 3.47727 4.33035 2.15089 6.45255C1.606 6.0654 0.401498 5.58502 0 5.01862C0 5.01862 0 5.01862 0 5.01862C0 5.01862 0 5.01862 0 5.01862Z" fill="none" stroke-width="0.3" stroke="#D09F2A" transform="translate(7.291 442.858)" />
      <path id="Path Subtract" d="M91.2333 338.127C98.138 330.362 104.712 322.419 111.129 314.288C118.937 306.481 124.429 297.77 130.666 288.658C136.911 279.552 143.177 270.447 148.354 260.46C153.538 250.473 159.445 241.347 163.417 230.356C167.382 219.358 172.931 209.012 176.208 197.262C179.484 185.511 181.263 171.824 183.385 159.271C185.21 148.471 183.391 132.844 182.021 121.074C181.798 119.162 181.587 117.352 181.406 115.68C180.115 103.715 175.304 91.3259 170.795 81.1237C166.285 70.9215 157.911 61.759 153.251 52.7827C152.019 50.416 150.126 47.8707 148.161 45.23C142.681 37.8626 136.647 29.7526 142.891 22.707C151.38 13.1429 157.976 10.311 168.271 2.20235C178.339 -5.73415 186.35 9.66759 190.944 18.4982C191.047 18.6978 191.15 18.8939 191.25 19.0864C195.795 27.7901 201.925 39.4404 208.134 48.087C213.906 56.1146 223.923 60.6693 232.064 66.1859C226.413 85.8255 227.45 108.382 236.533 129.781C249.494 160.313 275.529 180.698 303.381 185.556C303.829 192.339 303.992 199.339 303.992 206.747C299.238 255.872 270.804 302.28 241.616 341.532C225.9 357.248 215.117 375.781 197.702 390.824C180.287 405.865 164.378 418.54 144.275 429.881C124.171 441.222 102.31 453.198 79.0237 457.835C55.7437 462.475 22.5843 464.802 2.86785 448.359C2.75603 447.659 3.76304 446.016 4.74289 444.418C5.52222 443.147 6.28431 441.906 6.45266 441.188C6.45266 441.188 6.39532 440.823 6.45266 440.47C8.94769 437.402 7.96547 432.848 6.45266 429.716C6.42228 429.656 6.38896 429.584 6.35275 429.509C5.43186 427.595 2.66282 421.842 0 423.981C3.47727 414.336 17.2358 410.776 23.839 403.368C30.4422 395.964 40.4724 390.004 47.4989 382.578C54.525 375.15 62.6051 368.655 69.7245 361.069C76.8442 353.484 84.3219 345.891 91.2333 338.127C91.2333 338.127 91.2333 338.127 91.2333 338.127Z" fill="#FED005" fill-rule="evenodd" transform="translate(2.496 0)" />
      <path id="Path#5" d="M4.76837e-07 0.46936C4.76837e-07 0.46936 0.172075 0.956848 4.76837e-07 1.18631C9.44954 4.26913 6.47417 16.4716 2.86785 22.6947C0.910543 22.752 0.97507 18.6869 0 19.8269C0.272449 20.9669 0.157733 21.6264 0.716964 22.6947C1.11846 23.261 2.32296 23.7414 2.86785 24.1285C4.19423 22.0064 4.45234 19.2246 6.45266 17.676C6.45266 17.676 6.39532 17.3104 6.45266 16.9591C7.04773 13.36 7.62132 9.80402 6.45266 6.2049C5.64965 4.54877 2.76747 -1.75317 4.76837e-07 0.46936C4.76837e-07 0.46936 4.76837e-07 0.46936 4.76837e-07 0.46936C4.76837e-07 0.46936 4.76837e-07 0.46936 4.76837e-07 0.46936Z" fill="#B37C13" transform="translate(3.53 424.057)" />
      <path id="Path#6" d="M0 10.7542C2.49504 7.68567 1.5128 3.13306 0 0C1.16866 3.59909 0.595085 7.15509 0 10.7542C0 10.7542 0 10.7542 0 10.7542C0 10.7542 0 10.7542 0 10.7542Z" fill="#D39D03" transform="translate(11.051 431.577)" />
      <path id="Path#7" d="M0 5.01862C0.544889 6.0654 1.26903 6.431 2.15089 7.16949C1.95014 5.91483 5.35571 1.6203 5.73569 0C3.73538 1.54858 3.47727 4.33035 2.15089 6.45255C1.606 6.0654 0.401498 5.58502 0 5.01862C0 5.01862 0 5.01862 0 5.01862C0 5.01862 0 5.01862 0 5.01862Z" fill="#D09F2A" transform="translate(7.291 442.858)" />
    </g>
    <g id="Group" transform="translate(82 174)">
      <path d="M7.008 93.984Q4.704 93.984 3.648 92.928Q2.592 91.872 2.592 89.568L2.592 78.336Q2.592 77.088 2.928 76.224Q3.264 75.36 3.936 74.784L13.536 66.72Q8.448 65.184 5.52 61.488Q2.592 57.792 2.592 50.88L2.592 40.8Q2.592 36.48 4.032 33.12Q5.472 29.76 8.16 27.456L20.64 16.992Q23.232 14.88 27.072 13.68Q30.912 12.48 35.808 12.48L62.688 12.48Q64.992 12.48 66.048 13.536Q67.104 14.592 67.104 16.896L67.104 28.32Q67.104 29.568 66.768 30.432Q66.432 31.296 65.76 31.872L57.12 39.072Q63.168 40.416 66.864 44.112Q70.56 47.808 70.56 55.584L70.56 65.664Q70.56 69.984 69.12 73.344Q67.68 76.704 64.896 79.008L52.512 89.376Q49.824 91.584 45.984 92.784Q42.144 93.984 37.344 93.984L7.008 93.984ZM49.728 82.56Q58.944 82.56 64.272 78.192Q69.6 73.824 69.6 65.664L69.6 55.584Q69.6 47.52 65.472 44.064Q61.344 40.608 54.624 39.648L40.32 37.728Q39.072 37.632 38.4 36.768Q37.728 35.904 37.728 34.656Q37.728 33.408 38.4 32.592Q39.072 31.776 40.32 31.776L62.688 31.776Q64.512 31.776 65.328 30.96Q66.144 30.144 66.144 28.32L66.144 16.896Q66.144 15.072 65.328 14.256Q64.512 13.44 62.688 13.44L35.808 13.44Q26.496 13.44 21.216 17.808Q15.936 22.176 15.936 30.336L15.936 40.416Q15.936 48.48 20.016 51.936Q24.096 55.392 30.816 56.352L45.216 58.368Q46.464 58.464 47.088 59.232Q47.712 60 47.712 61.632Q47.712 62.784 47.088 63.6Q46.464 64.416 45.216 64.416L19.392 64.416Q17.568 64.416 16.752 65.232Q15.936 66.048 15.936 67.872L15.936 79.104Q15.936 80.928 16.752 81.744Q17.568 82.56 19.392 82.56L49.728 82.56ZM57.504 22.08L57.504 23.04L36.192 23.04Q32.16 23.04 29.76 25.248Q27.36 27.456 27.36 30.816L27.36 38.688Q27.36 42.048 28.704 43.392Q30.048 44.736 32.256 45.12L52.512 49.248Q55.392 49.824 57.264 51.744Q59.136 53.664 59.136 58.656L59.136 64.224Q59.136 68.448 56.256 71.184Q53.376 73.92 48.48 73.92L24.576 73.92L24.576 72.96L48.48 72.96Q52.896 72.96 55.536 70.512Q58.176 68.064 58.176 64.224L58.176 58.656Q58.176 54.144 56.592 52.464Q55.008 50.784 52.32 50.208L32.064 46.08Q29.568 45.6 27.984 44.112Q26.4 42.624 26.4 38.688L26.4 30.816Q26.4 26.976 29.088 24.528Q31.776 22.08 36.192 22.08L57.504 22.08ZM124.224 49.44Q125.76 49.44 126.672 50.352Q127.584 51.264 128.928 53.952L137.76 71.616Q138.24 72.576 138.96 72.768Q139.68 72.96 140.352 72.96L140.832 72.96Q141.6 72.96 142.272 72.336Q142.944 71.712 143.04 70.944L145.44 60Q145.824 58.176 145.872 55.296Q145.92 52.416 145.92 50.304L145.92 22.08L146.88 22.08L146.88 50.4Q146.88 52.512 146.832 55.392Q146.784 58.272 146.4 60.096L144 70.944Q143.616 72.48 142.8 73.2Q141.984 73.92 140.832 73.92L140.16 73.92Q139.296 73.92 138.384 73.584Q137.472 73.248 136.992 72.288L128.16 54.432Q126.912 51.936 126.144 51.168Q125.376 50.4 124.224 50.4L121.824 50.4Q120.672 50.4 119.904 51.168Q119.136 51.936 117.888 54.432L109.056 72.288Q108.576 73.248 107.664 73.584Q106.752 73.92 105.888 73.92L105.216 73.92Q104.064 73.92 103.248 73.2Q102.432 72.48 102.048 70.944L99.648 60.096Q99.264 58.272 99.216 55.392Q99.168 52.512 99.168 50.4L99.168 22.08L100.128 22.08L100.128 50.304Q100.128 52.416 100.176 55.296Q100.224 58.176 100.608 60L103.008 70.944Q103.104 71.712 103.776 72.336Q104.448 72.96 105.216 72.96L105.696 72.96Q106.368 72.96 107.088 72.768Q107.808 72.576 108.288 71.616L117.12 53.952Q118.464 51.264 119.376 50.352Q120.288 49.44 121.824 49.44L124.224 49.44ZM139.296 13.44Q137.472 13.44 136.656 14.256Q135.84 15.072 135.84 16.896L135.84 52.224L130.272 40.128Q129.504 38.496 128.256 37.824Q127.008 37.152 125.184 37.152L121.152 37.152Q119.328 37.152 118.08 37.824Q116.832 38.496 116.064 40.128L110.496 52.224L110.496 16.896Q110.496 15.072 109.68 14.256Q108.864 13.44 107.04 13.44L92.256 13.44Q90.432 13.44 89.616 14.256Q88.8 15.072 88.8 16.896L88.8 53.952Q88.8 57.024 89.04 59.664Q89.28 62.304 90.528 65.856L95.328 79.104Q95.808 80.64 96.912 81.6C97.648 82.24 98.528 82.56 99.552 82.56L112.224 82.56C113.248 82.56 114.112 82.32 114.816 81.84Q115.872 81.12 116.256 79.68L120.768 64.032Q121.056 63.072 121.488 62.736Q121.92 62.4 122.496 62.4L123.36 62.4Q123.936 62.4 124.368 62.736Q124.8 63.072 125.088 64.032L129.504 79.68Q129.888 81.216 131.136 81.888C131.968 82.336 132.896 82.56 133.92 82.56L146.688 82.56Q148.224 82.56 149.136 81.552Q150.048 80.544 150.528 79.104L155.328 66.048Q156.576 62.496 156.816 59.856Q157.056 57.216 157.056 54.144L157.056 16.896Q157.056 15.072 156.24 14.256Q155.424 13.44 153.6 13.44L139.296 13.44ZM103.2 92.832Q102.528 93.312 101.664 93.648Q100.8 93.984 99.84 93.984L87.168 93.984Q85.344 93.984 84 92.832Q82.656 91.68 82.08 89.856L77.28 76.608Q75.936 73.056 75.696 70.32Q75.456 67.584 75.456 64.416L75.456 27.36Q75.456 26.112 75.792 25.248Q76.128 24.384 76.8 23.808L89.184 13.344Q89.664 12.96 90.48 12.72Q91.296 12.48 92.256 12.48L107.04 12.48Q109.344 12.48 110.4 13.536Q111.456 14.592 111.456 16.896L111.456 41.952L116.832 37.44Q117.6 36.768 118.704 36.48Q119.808 36.192 121.152 36.192L122.496 36.192L122.496 27.36Q122.496 26.112 122.784 25.248Q123.072 24.384 123.648 23.904L123.744 23.808L136.224 13.344Q136.704 12.96 137.472 12.72Q138.24 12.48 139.296 12.48L153.6 12.48Q155.904 12.48 156.96 13.536Q158.016 14.592 158.016 16.896L158.016 54.144Q158.016 57.312 157.776 60.048Q157.536 62.784 156.192 66.336L151.392 79.392Q151.104 80.352 150.624 81.12Q150.144 81.888 149.472 82.56L137.088 92.832Q136.512 93.408 135.84 93.696Q135.168 93.984 134.304 93.984L121.536 93.984Q119.616 93.984 118.176 93.12Q116.736 92.256 116.16 90.432L114.24 83.616L103.2 92.832ZM214.656 93.984L170.112 93.984Q167.808 93.984 166.752 92.928Q165.696 91.872 165.696 89.568L165.696 27.36Q165.696 26.112 166.032 25.248Q166.368 24.384 167.04 23.808L179.424 13.344Q179.904 12.96 180.72 12.72Q181.536 12.48 182.496 12.48L227.04 12.48Q229.344 12.48 230.4 13.536Q231.456 14.592 231.456 16.896L231.456 28.128Q231.456 29.376 231.12 30.24Q230.784 31.104 230.112 31.68L221.856 38.496Q222.816 38.976 223.248 39.936Q223.68 40.896 223.68 42.432L223.68 52.704Q223.68 53.952 223.344 54.816Q223.008 55.68 222.336 56.256L213.792 63.456L227.04 63.456Q229.344 63.456 230.4 64.512Q231.456 65.568 231.456 67.872L231.456 79.104Q231.456 80.352 231.12 81.216Q230.784 82.08 230.112 82.656L217.632 93.024Q217.248 93.408 216.432 93.696Q215.616 93.984 214.656 93.984ZM227.04 82.56Q228.864 82.56 229.68 81.744Q230.496 80.928 230.496 79.104L230.496 67.872Q230.496 66.048 229.68 65.232Q228.864 64.416 227.04 64.416L200.544 64.416L200.544 56.16L219.264 56.16Q221.088 56.16 221.904 55.344Q222.72 54.528 222.72 52.704L222.72 42.432Q222.72 40.608 221.904 39.792Q221.088 38.976 219.264 38.976L200.544 38.976L200.544 31.584L227.04 31.584Q228.864 31.584 229.68 30.768Q230.496 29.952 230.496 28.128L230.496 16.896Q230.496 15.072 229.68 14.256Q228.864 13.44 227.04 13.44L182.496 13.44Q180.672 13.44 179.856 14.256Q179.04 15.072 179.04 16.896L179.04 79.104Q179.04 80.928 179.856 81.744Q180.672 82.56 182.496 82.56L227.04 82.56ZM221.856 72.96L221.856 73.92L189.504 73.92L189.504 22.08L221.856 22.08L221.856 23.04L190.464 23.04L190.464 47.136L214.08 47.136L214.08 48.096L190.464 48.096L190.464 72.96L221.856 72.96ZM291.36 93.984L261.12 93.984Q248.544 93.984 242.544 87.456Q236.544 80.928 236.544 70.56L236.544 43.488Q236.544 38.208 238.08 34.368Q239.616 30.528 242.592 27.936L254.976 17.472Q257.952 14.976 262.608 13.728Q267.264 12.48 273.504 12.48L297.504 12.48Q299.808 12.48 300.864 13.536Q301.92 14.592 301.92 16.896L301.92 28.512Q301.92 29.76 301.584 30.624Q301.248 31.488 300.576 32.064L288.096 42.432Q287.712 42.816 286.896 43.104Q286.08 43.392 285.12 43.392L272.64 43.392L272.64 57.216Q272.736 57.024 272.976 56.784Q273.216 56.544 273.408 56.352L285.792 45.888Q286.272 45.504 287.088 45.264Q287.904 45.024 288.864 45.024L303.744 45.024Q306.048 45.024 307.104 46.08Q308.16 47.136 308.16 49.44L308.16 79.104Q308.16 80.352 307.824 81.216Q307.488 82.08 306.816 82.656L294.336 93.024Q293.952 93.408 293.136 93.696Q292.32 93.984 291.36 93.984ZM303.744 82.56Q305.568 82.56 306.384 81.744Q307.2 80.928 307.2 79.104L307.2 49.44Q307.2 47.616 306.384 46.8Q305.568 45.984 303.744 45.984L288.864 45.984Q287.04 45.984 286.224 46.8Q285.408 47.616 285.408 49.44L285.408 64.416L276.096 64.416Q273.888 64.416 272.784 63.264Q271.68 62.112 271.68 59.712L271.68 36.768Q271.68 34.368 273.12 33.168Q274.56 31.968 277.536 31.968L297.504 31.968Q299.328 31.968 300.144 31.152Q300.96 30.336 300.96 28.512L300.96 16.896Q300.96 15.072 300.144 14.256Q299.328 13.44 297.504 13.44L273.504 13.44Q261.504 13.44 255.696 18.24Q249.888 23.04 249.888 33.024L249.888 62.976Q249.888 72.96 255.696 77.76C259.568 80.96 265.504 82.56 273.504 82.56L303.744 82.56ZM277.632 73.92Q272.352 73.92 268.992 73.248Q265.632 72.576 263.712 71.088Q261.792 69.6 261.072 67.248Q260.352 64.896 260.352 61.536L260.352 34.656Q260.352 27.84 263.424 24.96Q266.496 22.08 275.712 22.08L292.32 22.08L292.32 23.04L275.712 23.04Q267.264 23.04 264.288 25.68Q261.312 28.32 261.312 34.656L261.312 61.536Q261.312 67.776 264.624 70.368Q267.936 72.96 277.632 72.96L295.776 72.96L295.776 54.624L296.736 54.624L296.736 73.92L277.632 73.92Z" transform="" fill="#000000" />
      <path d="M8.064 78.432Q6.048 78.432 4.656 77.856Q3.264 77.28 3.072 76.896Q2.976 76.704 3.072 76.56Q3.168 76.416 3.36 76.608Q3.936 76.992 5.568 76.992Q7.392 76.992 10.176 75.984Q12.96 74.976 16.128 71.904Q18.72 69.312 21.408 65.52Q24.096 61.728 27.168 57.312Q24 56.64 21.264 55.248Q18.528 53.856 17.664 51.168Q17.472 50.4 17.76 50.4Q18.048 50.4 18.24 50.88Q18.912 51.936 21.12 52.272Q23.328 52.608 25.632 52.608Q27.072 52.608 28.368 52.512Q29.664 52.416 30.336 52.416L30.624 52.416Q35.52 45.6 41.76 38.832Q48 32.064 56.256 27.456Q61.728 24.384 67.152 23.184Q72.576 21.984 77.568 21.984Q82.656 21.984 86.256 24.528Q89.856 27.072 89.856 31.296Q89.856 36.288 83.904 42.144Q77.952 48 65.376 52.608Q58.368 55.2 50.544 56.784Q42.72 58.368 35.04 58.08Q33.792 58.08 32.352 57.984Q30.912 57.888 29.28 57.6Q25.824 62.88 22.848 67.344Q19.872 71.808 17.184 74.4Q14.784 76.704 12.288 77.568Q9.792 78.432 8.064 78.432ZM33.024 52.128Q39.552 51.36 46.704 49.44Q53.856 47.52 60.096 45.216Q72.192 40.8 77.52 36.24Q82.848 31.68 82.848 28.32Q82.848 25.824 80.64 24.672Q78.432 23.52 75.552 23.52Q71.808 23.52 66.864 24.624Q61.92 25.728 56.832 28.416Q49.536 32.256 43.68 38.736Q37.824 45.216 33.024 52.128ZM66.528 92.928Q65.856 92.928 66.144 91.968Q66.24 91.68 66.24 91.2Q66.24 89.28 62.784 87.6Q59.328 85.92 53.088 84.912Q46.848 83.904 38.304 83.904Q33.024 83.904 28.032 84.336Q23.04 84.768 18.816 85.728C16.832 86.176 14.704 86.752 12.432 87.456Q9.024 88.512 5.952 89.424Q2.88 90.336 0.672 90.336Q-0.768 90.336 -1.68 89.808Q-2.592 89.28 -2.592 87.744Q-2.592 85.536 0.24 82.896Q3.072 80.256 9.984 78.432Q15.648 76.8 20.352 76.416Q25.056 76.032 29.76 76.032Q48.864 76.032 58.128 80.064Q67.392 84.096 67.392 90.336Q67.392 90.72 67.392 91.056Q67.392 91.392 67.296 91.872Q67.2 92.928 66.528 92.928ZM73.056 86.496Q70.08 86.496 68.448 84.624Q66.816 82.752 66.816 79.776Q66.816 76.992 68.304 73.632Q69.792 70.272 73.056 66.816Q76.416 63.168 81.408 60.912Q86.4 58.656 90.912 58.656Q94.56 58.656 97.152 60.24Q99.744 61.824 100.608 64.224Q101.664 64.224 103.248 64.8Q104.832 65.376 104.832 66.912Q104.832 67.968 103.776 69.312Q103.104 70.272 101.424 72.192Q99.744 74.112 98.304 76.32Q97.152 78.048 96.48 79.536Q95.808 81.024 95.808 82.08Q95.808 83.52 97.248 83.52Q98.88 83.52 102.144 81.696Q105.696 79.68 108.96 77.088Q112.224 74.496 114.048 72.96Q114.528 72.576 114.72 72.576Q115.104 72.576 115.104 73.056Q115.104 73.632 114.624 74.112Q113.76 74.88 111.264 76.992Q108.768 79.104 105.552 81.408Q102.336 83.712 99.264 85.152Q97.728 85.824 96.432 86.16Q95.136 86.496 94.08 86.496Q91.488 86.496 90.144 85.008Q88.8 83.52 88.8 81.12Q88.8 80.16 89.088 79.104Q89.376 78.048 89.76 76.992L90.432 75.36Q87.936 78.432 85.44 80.496Q82.944 82.56 80.448 84.096Q78.336 85.344 76.464 85.92Q74.592 86.496 73.056 86.496ZM76.032 84Q77.76 84 81.024 81.936Q84.288 79.872 88.608 75.552Q89.184 74.976 90.768 73.488Q92.352 72 94.176 70.128Q96 68.256 97.296 66.384Q98.592 64.512 98.592 63.264Q98.592 61.44 95.424 61.44Q92.64 61.44 88.752 63.6Q84.864 65.76 81.312 69.984Q77.664 74.304 75.984 77.424Q74.304 80.544 74.304 82.176Q74.304 84 76.032 84ZM128.256 88.032Q122.304 88.032 122.304 81.984Q122.304 80.928 122.448 79.824Q122.592 78.72 122.976 77.568Q121.44 79.968 120.096 81.744Q118.752 83.52 117.888 84.48Q115.776 86.88 113.664 86.88Q112.704 86.88 111.36 86.448Q110.016 86.016 108.768 84.864Q110.016 83.136 112.752 79.2Q115.488 75.264 118.464 70.656Q117.216 71.904 115.728 73.2Q114.24 74.496 112.992 75.552Q112.608 75.936 112.128 75.936Q111.744 75.936 111.744 75.552Q111.744 75.072 112.512 74.4Q114.528 72.672 116.352 70.992Q118.176 69.312 120.384 66.576Q122.592 63.84 125.568 59.04Q130.944 50.784 134.784 43.872Q138.624 36.96 139.776 33.12Q139.968 32.64 140.064 32.064Q140.16 31.488 140.16 30.912Q140.16 30.144 139.776 29.52Q139.392 28.896 138.336 28.8Q138.144 28.8 138.144 28.608Q138.144 28.416 138.336 28.416Q140.352 28.512 141.696 29.808Q143.04 31.104 143.424 34.272Q143.712 36.864 141.984 41.76Q140.256 46.656 137.28 52.656Q134.304 58.656 130.944 64.512Q134.4 61.056 138.24 58.896Q142.08 56.736 145.248 56.736Q148.128 56.736 149.856 58.56Q151.584 60.384 151.584 63.36Q151.584 66.624 149.76 70.512Q147.936 74.4 144.864 78.048Q141.12 82.464 136.56 85.248Q132 88.032 128.256 88.032ZM127.776 87.168Q130.272 87.168 133.44 85.056Q136.608 82.944 139.2 78.912Q141.12 75.936 141.984 73.152Q142.848 70.368 142.848 68.256Q142.848 65.664 141.696 64.224Q140.544 62.784 138.624 62.784Q136.128 62.784 132.96 64.944Q129.792 67.104 127.2 71.136Q125.28 74.016 124.368 76.8Q123.456 79.584 123.456 81.792Q123.456 87.168 127.776 87.168ZM157.824 87.456Q153.984 87.456 151.056 85.968Q148.128 84.48 146.784 80.448Q146.688 80.064 147.024 79.968Q147.36 79.872 147.456 80.352Q148.416 82.464 149.952 83.328Q151.488 84.192 153.312 84.192Q156.384 84.192 158.736 82.368Q161.088 80.544 162.96 77.76Q164.832 74.976 166.32 72.048Q167.808 69.12 169.152 67.008Q171.264 63.456 174.192 60.576Q177.12 57.696 179.52 57.024Q178.944 56.736 178.08 56.736Q175.68 56.736 172.8 58.176Q169.92 59.616 166.992 61.92Q164.064 64.224 161.328 66.768Q158.592 69.312 156.336 71.472Q154.08 73.632 152.736 74.88Q151.968 75.552 151.584 75.552Q151.2 75.552 151.2 75.168Q151.2 74.592 151.68 74.112Q154.56 71.616 157.632 68.496Q160.704 65.376 163.872 62.448Q167.04 59.52 170.304 57.6Q173.568 55.68 176.928 55.68Q177.312 55.68 177.648 55.68Q177.984 55.68 178.368 55.776Q179.424 55.872 180.336 56.352Q181.248 56.832 180.864 57.024Q178.656 57.984 177.408 60.864Q176.16 63.744 175.104 67.584Q174.048 71.424 172.56 75.36Q171.072 79.296 168.288 82.368Q169.632 81.888 172.512 80.16Q175.392 78.432 178.848 75.888Q182.304 73.344 185.28 70.272Q185.664 69.888 186.048 69.888Q186.528 69.888 186.528 70.368Q186.528 70.752 186.144 71.136Q183.552 73.632 180.384 76.464Q177.216 79.296 173.52 81.792Q169.824 84.288 165.888 85.872Q161.952 87.456 157.824 87.456Z" transform="translate(71.614 98.5)" fill="#000000" />
    </g>
  </g>
</svg>