<?xml version="1.0" standalone="no"?>
<!DOCTYPE svg PUBLIC "-//W3C//DTD SVG 20010904//EN"
 "http://www.w3.org/TR/2001/REC-SVG-20010904/DTD/svg10.dtd">
<svg version="1.0" xmlns="http://www.w3.org/2000/svg"
 width="448.000000pt" height="123.000000pt" viewBox="0 0 448.000000 123.000000"
 preserveAspectRatio="xMidYMid meet">

<g transform="translate(0.000000,123.000000) scale(0.100000,-0.100000)"
fill="#000000" stroke="none">
<path d="M415 1199 c-19 -17 -35 -38 -35 -48 0 -9 18 -44 40 -79 59 -93 74
-147 68 -250 -7 -111 -48 -221 -128 -341 -68 -101 -190 -234 -289 -315 -62
-51 -69 -60 -56 -73 18 -17 18 -19 4 -44 -9 -17 -5 -22 25 -34 46 -20 139 -19
207 1 113 33 258 130 347 233 145 166 227 334 220 447 -3 43 -6 48 -36 58 -91
31 -156 128 -157 237 0 62 -2 68 -36 100 -19 19 -48 58 -64 87 -34 63 -57 67
-110 21z" fill="#FFFF00"/>
<path d="M1195 825 c-5 -2 -22 -6 -37 -9 -15 -3 -54 -28 -87 -56 -70 -58 -85
-94 -79 -186 3 -52 9 -69 31 -92 l27 -28 -30 -29 c-26 -25 -30 -36 -30 -81 0
-33 5 -56 15 -64 10 -8 53 -11 147 -8 151 4 163 8 244 85 44 41 53 55 58 95
14 94 -13 172 -65 190 -10 4 -7 11 14 27 24 20 27 29 27 86 0 48 -4 64 -16 69
-16 6 -201 7 -219 1z m220 -70 l0 -50 -90 -5 c-83 -5 -90 -7 -93 -27 -3 -19 3
-22 45 -28 133 -18 155 -36 161 -128 5 -77 -8 -111 -50 -137 -29 -18 -47 -20
-163 -18 l-130 3 0 50 0 50 103 3 c100 3 102 3 102 26 0 22 -6 25 -71 34 -112
17 -139 45 -139 143 0 113 41 140 210 136 l115 -2 0 -50z"/>
<path d="M1166 738 c-17 -24 -21 -104 -7 -126 4 -7 47 -22 95 -32 48 -11 91
-22 96 -25 17 -11 12 -101 -6 -116 -11 -9 -54 -16 -113 -20 l-96 -5 103 -2
c90 -2 104 0 122 18 21 21 28 102 11 128 -5 8 -51 24 -102 36 l-94 21 -3 51
c-4 68 9 78 117 85 l86 6 -97 1 c-90 2 -98 0 -112 -20z"/>
<path d="M1531 788 l-51 -42 0 -162 c0 -148 2 -169 24 -230 14 -37 31 -71 38
-75 7 -5 36 -9 64 -9 42 0 58 5 89 30 l38 30 18 -30 c17 -28 23 -30 77 -30 52
0 62 4 107 41 82 66 98 117 103 322 3 122 0 172 -8 182 -18 21 -118 20 -150
-2 -60 -39 -90 -77 -90 -110 0 -19 -5 -33 -12 -33 -6 0 -20 -7 -30 -17 -17
-15 -18 -13 -18 70 0 101 -5 107 -93 107 -49 0 -59 -4 -106 -42z m181 -110 l3
-133 28 53 c26 49 30 53 60 50 27 -3 36 -10 57 -53 l25 -50 5 130 5 130 63 3
62 3 0 -159 c0 -144 -2 -166 -24 -223 l-24 -64 -58 0 -59 0 -20 63 c-26 83
-45 83 -71 0 l-19 -63 -59 0 -59 0 -23 60 c-20 53 -23 78 -23 223 l-1 162 65
0 64 0 3 -132z"/>
<path d="M1642 625 c-2 -166 8 -215 43 -215 21 0 30 12 60 75 27 56 41 75 56
75 14 0 29 -20 56 -75 30 -60 42 -75 60 -75 33 0 43 52 41 215 l-1 140 -7
-145 c-6 -128 -19 -200 -35 -200 -2 0 -23 36 -45 80 -37 73 -43 80 -70 80 -27
0 -33 -7 -70 -80 -22 -45 -44 -78 -49 -76 -15 10 -24 68 -31 206 l-7 135 -1
-140z"/>
<path d="M2173 817 c-12 -7 -37 -27 -57 -45 l-36 -32 0 -229 c0 -199 2 -230
16 -235 9 -3 86 -6 172 -6 l157 0 53 46 c50 44 52 47 52 98 0 62 -11 76 -63
76 l-40 0 27 25 c24 22 27 32 25 80 -2 48 1 59 24 83 22 23 27 37 27 80 0 40
-4 53 -19 62 -28 15 -310 12 -338 -3z m337 -62 l0 -55 -100 0 -100 0 0 -30 0
-29 73 -3 72 -3 3 -44 c4 -55 -5 -61 -85 -61 l-63 0 0 -30 0 -30 100 0 100 0
0 -55 0 -55 -165 0 -165 0 0 225 0 225 165 0 165 0 0 -55z"/>
<path d="M2240 585 l0 -175 113 2 112 2 -107 3 -108 4 0 79 0 79 83 4 82 3
-82 2 -83 2 0 80 0 79 108 4 107 3 -112 2 -113 2 0 -175z"/>
<path d="M2742 819 c-45 -9 -70 -25 -139 -90 -50 -48 -57 -78 -52 -241 4 -95
8 -119 26 -149 34 -53 61 -62 216 -67 134 -4 138 -4 170 21 81 63 78 55 75
190 l-3 122 -70 6 c-38 3 -65 6 -60 7 6 1 29 20 53 42 40 37 42 42 42 94 0 44
-4 57 -19 66 -23 12 -177 12 -239 -1z m238 -64 l0 -55 -72 0 c-124 0 -119 5
-116 -119 l3 -106 48 -3 47 -3 0 60 0 61 65 0 65 0 0 -115 0 -115 -130 0
c-226 0 -243 18 -238 240 3 121 5 141 23 160 35 39 73 49 193 50 l112 0 0 -55z
m-110 -160 c-7 -9 -26 -25 -42 -36 l-28 -20 0 35 c0 35 1 36 41 36 36 0 40 -2
29 -15z"/>
<path d="M2749 753 c-29 -7 -39 -51 -39 -177 0 -164 -3 -160 139 -164 l111 -4
-2 69 -2 68 -3 -62 -4 -63 -67 0 c-74 0 -131 13 -144 32 -4 7 -8 68 -8 135 0
95 3 125 15 137 15 15 56 23 145 29 25 2 7 4 -40 4 -47 0 -92 -1 -101 -4z"/>
<path d="M3683 771 c-70 -24 -125 -63 -175 -127 -49 -61 -64 -69 -103 -54 -15
6 -30 8 -33 5 -8 -8 29 -45 45 -45 35 0 -64 -116 -108 -125 -16 -4 -27 -10
-24 -15 3 -4 -6 -15 -20 -24 -27 -18 -34 -53 -12 -62 8 -3 49 5 92 17 133 36
317 26 352 -20 11 -14 12 -12 13 11 0 59 -80 91 -232 92 l-107 1 23 25 c13 14
33 40 45 58 21 30 26 32 80 32 109 0 241 47 304 108 30 29 37 43 37 74 0 31
-5 40 -30 53 -38 20 -83 19 -147 -4z m113 -16 c18 -14 18 -16 -22 -53 -22 -22
-66 -49 -99 -61 -66 -25 -167 -53 -172 -48 -2 2 13 24 33 49 73 94 208 153
260 113z"/>
<path d="M4183 721 c0 -35 -83 -181 -138 -240 -45 -49 -121 -104 -136 -99 -6
2 4 22 20 46 17 23 31 47 31 52 0 6 -12 22 -27 35 -58 51 -157 25 -210 -54
-59 -87 3 -146 90 -87 l36 25 3 -22 c4 -32 54 -34 98 -5 58 40 67 43 47 20
-11 -11 -16 -26 -12 -31 9 -16 51 -13 65 4 11 14 14 13 27 -5 27 -39 95 -19
151 44 76 87 49 186 -39 142 -17 -8 -29 -12 -27 -8 30 59 51 115 55 149 4 34
2 43 -14 51 -17 10 -20 8 -20 -17z m-331 -282 c-76 -71 -105 -79 -71 -19 26
47 42 63 84 84 20 11 33 12 40 5 7 -7 -10 -29 -53 -70z m358 38 c0 -26 -42
-94 -67 -108 -35 -21 -53 -14 -53 18 0 56 77 136 108 111 6 -6 12 -15 12 -21z"/>
<path d="M4353 521 c-61 -48 -98 -89 -90 -97 3 -4 32 15 64 42 32 27 66 56 76
63 25 20 -41 -86 -81 -127 -32 -34 -33 -34 -58 -17 -36 23 -41 11 -9 -21 24
-24 32 -26 73 -20 52 7 152 68 152 93 0 11 -7 10 -29 -6 -16 -12 -32 -21 -35
-21 -7 0 32 112 44 124 18 18 10 26 -24 26 -25 0 -48 -11 -83 -39z"/>
</g>
</svg>
