<?xml version="1.0" encoding="utf-8"?>
<!-- Generator: Adobe Adobe Illustrator 24.2.0, SVG Export Plug-In . SVG Version: 6.00 Build 0)  -->
<svg version="1.1" id="Layer_1" xmlns="http://www.w3.org/2000/svg" xmlns:xlink="http://www.w3.org/1999/xlink" x="0px" y="0px"
	 width="1728px" height="1296px" viewBox="0 0 1728 1296" style="enable-background:new 0 0 1728 1296;" xml:space="preserve">
<style type="text/css">
	.st0{fill:#FFFFFF;}
	.st1{fill:#2C8DDB;}
</style>
<g>
	<g>
		<path class="st0" d="M939.23,1296c-241.5,0-482.36,0-723.23,0c0-432,0-864,0-1296c432,0,864,0,1296,0c0,432,0,864,0,1296
			C1321.29,1296,1130.58,1296,939.23,1296z M1106.67,686.42c-1.3,1.07-2.69,2.03-3.87,3.21c-10.65,10.62-22.68,19.52-35.18,27.74
			c-17.12,11.26-35.33,20.38-54.59,27.51c-26.26,9.73-53.39,15.18-81.23,16.94c-20.87,1.32-41.71-0.17-62.29-3.81
			c-29.39-5.2-57.49-14.4-84.1-28.14c-30.91-15.96-57.61-37.19-80.24-63.55c-16.14-18.8-29.57-39.43-40.26-61.8
			c-2.41-5.04-4.69-10.15-6.91-15.28c-1.5-3.48-1.66-7.32-3.49-10.54c-1.99-3.49-2.98-7.17-3.49-11.08
			c-0.12-0.96-0.82-1.84-1.22-2.77c-0.38-0.88-0.89-1.76-1.04-2.69c-0.37-2.25-0.38-4.58-0.88-6.8
			c-3.32-14.62-5.17-29.44-5.87-44.39c-0.71-15.17-0.88-30.35,1.06-45.47c0.69-5.42,0.84-10.96,2.03-16.27
			c1.16-5.19,0.29-10.79,3.06-15.64c0.87-8.38,5.66-15.86,5.58-24.46c0-0.36,0.35-0.72,0.53-1.08c1-2.03,2.16-4,2.96-6.11
			c5.57-14.82,12.24-29.1,20.33-42.73c9.39-15.82,20.34-30.53,32.57-44.19c12.53-13.99,26.47-26.53,41.8-37.5
			c16.86-12.07,34.62-22.5,53.87-30.23c8.59-3.45,17.35-6.5,26.15-9.38c7.16-2.34,14.41-4.54,21.77-6.12
			c12.32-2.64,24.8-4.31,37.38-5.46c18.76-1.71,37.43-1.04,56.12,0.47c4.38,0.35,8.75,1.04,13.07,1.83
			c7.21,1.33,14.39,2.89,21.58,4.31c0.78,0.15,1.62,0.02,2.78,0.02c-1.24-2.28-3.18-3.1-5.03-3.95c-6.31-2.9-12.58-5.88-18.98-8.57
			c-5.42-2.27-10.9-4.46-16.51-6.19c-13.44-4.15-27.11-7.3-41.05-9.33c-11.65-1.7-23.31-3.2-35.08-3.39
			c-9.48-0.16-18.97-0.24-28.45,0.02c-7.77,0.21-15.6,0.47-23.26,1.66c-7.33,1.14-14.7,2.24-21.94,3.76
			c-11.69,2.44-23.33,5.39-34.72,9c-16.24,5.15-31.74,12.14-46.88,20.07c-19.29,10.11-37.22,22.09-53.79,36.15
			c-14.95,12.69-28.65,26.6-40.71,42.14c-18.24,23.49-32.51,49.17-43.08,76.94c-1.5,3.94-2.87,7.93-4.19,11.93
			c-1.32,4.01-2.58,8.03-3.71,12.09c-1.19,4.26-2.23,8.57-3.27,12.88c-0.99,4.1-2.22,8.18-2.74,12.34
			c-0.51,4.08-1.64,8.03-2.17,12.08c-1.21,9.4-2.8,18.79-3.38,28.23c-1.68,27.45-0.31,54.7,5.14,81.78
			c4.23,21,10.67,41.24,19.36,60.68c12.51,27.99,28.93,53.64,49.27,76.65c21.46,24.28,45.78,45.28,73.7,61.77
			c23.63,13.95,48.49,25.24,75.02,32.74c23.19,6.55,46.71,10.99,70.78,12.46c20.05,1.23,39.95-0.11,59.85-2.89
			c32.01-4.47,62.38-14.17,91.45-28.05c22.35-10.67,42.77-24.39,61.79-40.25c15.45-12.88,29.16-27.38,41.45-43.27
			c1.52-1.97,2.57-4.31,3.82-6.64C1107.34,685.81,1107.4,686.01,1106.67,686.42z M873.18,519.89c3.64,5.15,7.24,10.33,10.94,15.44
			c3.69,5.1,7.3,10.28,11.3,15.14c3.91,4.74,6.52,10.57,11.91,15.04c0.11-2.42,0.25-4.07,0.25-5.72
			c-0.02-34.8-0.05-69.61-0.08-104.41c0-1.69,0.02-3.37,0-5.06c-0.03-2.17,1.15-2.97,3.16-2.93c1.05,0.02,2.11-0.02,3.16-0.02
			c20.86,0,41.72-0.01,62.59,0.03c2.52,0.01,5.07,0.11,7.55,0.52c16.03,2.64,25.44,12.64,27.19,28.76
			c1.35,12.46-5.72,25.5-16.91,30.76c-5.36,2.52-10.96,4.05-17.05,3.99c-16.65-0.17-33.29-0.05-49.94-0.05
			c-1.48,0-2.95-0.03-4.42,0.02c-1.49,0.05-2.3,0.88-2.4,2.36c-0.05,0.84-0.03,1.69-0.03,2.53c0.01,14.55,0.01,29.11,0.03,43.66
			c0,1.26-0.17,2.6,0.19,3.76c0.26,0.82,1.18,1.81,1.98,2c1.4,0.34,2.93,0.14,4.4,0.13c18.12,0,36.25-0.07,54.37,0.01
			c8.02,0.04,15.93-0.47,23.78-2.27c12.46-2.86,23.97-7.61,33.78-16.03c4-3.43,7.25-7.51,10.77-11.39
			c5.94-6.55,10.14-13.9,13.41-21.91c7.25-17.71,8.35-36.22,4.52-54.62c-7.17-34.42-28.41-55.95-62.5-64.66
			c-10.46-2.67-21.13-3.54-31.89-3.54c-40.88,0-81.76,0.01-122.65,0.01c-1.26,0-2.53,0-3.79,0.04c-1.8,0.05-2.67,1.04-2.69,2.8
			c-0.03,5.05-0.06,10.1-0.07,15.15c-0.03,21.73,0.01,43.45-0.11,65.18c-0.02,3.55,0.83,6.48,2.98,9.36
			C855.59,495.63,864.09,507.42,873.18,519.89z M792.93,427.98c-7.99-10.86-16.05-21.67-23.94-32.6c-2.05-2.85-4.39-4.07-7.94-4.03
			c-15.17,0.16-30.34,0.05-45.51,0.09c-5.13,0.01-5.13,0.09-5.18,5.37c0,0.21,0,0.42,0,0.63c-0.02,67.07-0.04,134.15-0.06,201.22
			c0,1.69-0.05,3.38,0.03,5.06c0.12,2.59,0.34,2.75,2.98,2.75c16.43-0.04,32.87-0.08,49.3-0.1c7.71-0.01,7.19,0.67,7.19-7.1
			c-0.03-34.59-0.05-69.18-0.06-103.77c0-1.32,0.21-2.63,0.36-4.49c1.12,0.9,1.69,1.19,2.03,1.65
			c10.21,13.93,20.44,27.85,30.57,41.84c16.32,22.52,32.61,45.06,48.82,67.65c2.16,3.01,4.61,4.33,8.42,4.27
			c13.69-0.21,27.39-0.06,41.09-0.06c1.26,0,2.53-0.03,3.79-0.05c1.79-0.03,2.7-0.96,2.71-2.73c0.02-3.16-0.29-6.36,0.07-9.48
			c0.91-8.01-0.85-15-6.89-20.63c-0.45-0.42-0.7-1.05-1.07-1.56c-14.02-18.98-27.91-38.05-42.12-56.89
			c-8.12-10.76-16.49-21.32-24.38-32.27c-3.63-5.04-6.95-10.35-10.89-15.1c-4.41-5.32-8.49-10.81-12.41-16.47
			C804.57,443.56,798.98,436.16,792.93,427.98z M1097.7,525.62c9.47-0.11,18.93-0.25,28.4-0.32c7.59-0.06,15.17,0.06,22.76-0.09
			c2.83-0.06,4.93,0.56,6.06,3.38c0.46,1.16,1.15,2.26,1.9,3.27c3.4,4.58,7.76,7.75,13.54,8.46c8.65,1.06,16.54-3.59,20.39-11.87
			c3.26-7,1.59-17-3.74-22.39c-5.83-5.9-16.07-7.64-23.43-4.02c-3.54,1.74-6.1,4.54-8.06,7.82c-1.49,2.48-3.32,3.3-6.2,3.26
			c-14.54-0.17-29.08-0.1-43.62-0.16c-1.42-0.01-2.83-0.29-4.53-0.48c0.26-1.35,0.42-2.35,0.64-3.34
			c1.45-6.57,2.76-13.14,3.24-19.91c0.49-6.97,0.83-13.86-0.08-20.81c-0.51-3.87,0.02-4.25,4.15-4.26
			c10.75-0.04,21.49-0.01,32.24-0.01c2.11,0,4.23,0.14,6.32-0.05c3.51-0.31,6.26,0.48,7.45,4.21c0.19,0.59,0.55,1.14,0.9,1.66
			c5.19,7.85,14.15,11.28,22.53,8.39c10.06-3.47,16.46-13.51,12.77-26.06c-2.84-9.65-13.2-15.22-22.91-13.29
			c-5.84,1.16-9.93,4.52-12.86,9.35c-1.64,2.72-3.63,3.6-6.69,3.57c-13.06-0.14-26.13-0.08-39.19-0.08c-6.86,0-6.83-0.01-8.72-6.63
			c-4.26-14.92-10.32-28.95-20.25-41.07c-0.35-0.43-0.41-1.11-0.69-1.94c1.2-0.16,2.21-0.41,3.22-0.41
			c15.17-0.02,30.34-0.01,45.51-0.01c0.84,0,1.69,0.04,2.53,0.06c1.59,0.05,2.81,0.67,3.57,2.16c0.67,1.31,1.35,2.64,2.19,3.84
			c3.43,4.9,7.93,8.07,14.06,8.6c9.06,0.78,16.73-3.69,20.35-11.91c3.28-7.47,1.36-17.98-4.54-23.44
			c-3.13-2.89-6.75-4.82-11.27-5.07c-8.09-0.46-14.59,2.32-18.8,9.22c-1.99,3.25-4.39,3.9-7.8,3.89
			c-18.75-0.09-37.51-0.05-56.26,0.05c-3.11,0.02-5.51-0.83-8-2.84c-11.91-9.58-24.91-17.29-39.7-21.57
			c-3.54-1.02-3.78-1.8-3.77-5.36c0.04-17.3,0.09-34.59-0.01-51.89c-0.02-3.1,0.91-5.17,3.74-6.61c4.39-2.24,6.8-6.15,8.32-10.7
			c3-8.95-1.04-22.58-13.55-26.24c-9.52-2.79-21.54,4.21-24.04,14.28c-2.23,9,0.75,17.3,8.64,22.61c2.8,1.88,3.95,3.89,3.86,7.22
			c-0.21,7.8-0.1,15.61-0.12,23.41c-0.02,12.66-0.08,25.31-0.04,37.97c0.01,3.91,0.34,4.19,4.07,5.17c0.81,0.21,1.66,0.31,2.47,0.53
			c24.43,6.68,44.52,19.7,59.05,40.73c11.98,17.34,17.49,36.97,18.48,57.71c1.2,25.13-5.05,48.57-19.56,69.33
			c-14.78,21.14-34.6,35.38-59.74,41.86c-4.1,1.06-4.47,1.42-4.64,5.44c-0.11,2.53-0.05,5.06-0.05,7.59c0,20.46,0,40.92,0,61.38
			c0,1.27,0.24,2.6-0.09,3.78c-0.37,1.32-1.06,2.66-1.96,3.68c-0.8,0.91-2.11,1.34-3.14,2.07c-10.73,7.62-10.42,26.14,0.54,33.33
			c8.88,5.82,21.35,3.52,26.97-4.98c6.5-9.84,4.23-23.32-5.19-29.03c-2.86-1.74-4.06-3.49-4.03-6.96
			c0.19-20.04,0.09-40.07,0.08-60.11c0-0.63,0.05-1.27-0.01-1.9c-0.21-2.49,0.92-3.61,3.33-4.46c5.54-1.95,11.35-3.7,16.24-6.81
			c5.66-3.6,11.32-4.53,17.81-4.45c23.18,0.28,46.36,0.14,69.53,0.05c3.47-0.01,5.73,0.81,7.64,4.13
			c3.93,6.85,9.86,10.55,18.24,10.14c9.69-0.47,17.81-7.91,18.77-17.93c0.95-9.81-5.67-19.72-14.75-21.54
			c-10.31-2.06-16.99,1.34-22.14,9.44c-1.56,2.46-3.07,3.53-5.98,3.51c-20.44-0.12-40.88-0.08-61.32-0.14
			c-0.86,0-1.73-0.39-2.78-0.65c0.54-0.86,0.69-1.27,0.98-1.54c11.99-11.23,21.62-24.13,28.04-39.34
			C1095.45,528.38,1096.24,527.35,1097.7,525.62z M1266.71,923.03c0.04-5.05,0.06-10.11,0.14-15.16c0.1-5.96-0.98-11.73-2.73-17.38
			c-4.23-13.66-12.85-23.39-26.08-29c-4.29-1.82-8.69-2.91-13.28-3.72c-13.47-2.4-26.81-2.18-39.91,1.72
			c-14.02,4.17-24.4,12.67-30.13,26.56c-4.29,10.4-5.07,21.25-4.74,32.22c0.17,5.64,0.78,11.42,2.26,16.85
			c4.86,17.79,16.65,28.91,34.44,33.35c13.02,3.25,26.27,3.49,39.45,0.88c15.68-3.11,28.1-10.89,35.31-25.76
			C1264.44,937.45,1265.78,930.9,1266.71,923.03z M557.28,905.55c0-13.5-0.01-27-0.01-40.5c0-0.84,0.05-1.69,0-2.53
			c-0.16-2.89-0.32-3.12-3.43-3.17c-4.21-0.07-8.43-0.08-12.64,0.03c-3.01,0.08-3.2,0.35-3.36,3.29c-0.06,1.05-0.02,2.11-0.02,3.16
			c0,19.83-0.01,39.65,0.03,59.48c0.01,3.37,0.27,6.73,0.3,10.1c0,0.44-0.64,0.98-1.1,1.28c-0.22,0.13-0.88-0.11-1.1-0.37
			c-2.26-2.77-4.52-5.55-6.69-8.38c-16.67-21.72-33.35-43.42-49.92-65.21c-1.7-2.23-3.41-3.5-6.27-3.33
			c-2.73,0.16-5.48-0.05-8.21-0.02c-7.54,0.06-7.27-0.88-7.26,7.07c0,32.06-0.01,64.12-0.02,96.18c0,1.05,0.01,2.11-0.02,3.16
			c-0.06,2.18,1.19,2.99,3.15,3.01c3.16,0.04,6.32,0.01,9.48,0.06c7.47,0.12,6.28-0.45,6.27-6.03c-0.04-22.15-0.08-44.29-0.06-66.44
			c0-1.72-0.67-3.69,1.06-5.55c1.05,1.11,1.97,1.93,2.7,2.88c10.24,13.38,20.46,26.78,30.69,40.18
			c8.18,10.72,16.36,21.42,24.52,32.16c1.05,1.38,2.05,2.75,3.97,2.75c5.27,0.01,10.53,0.01,15.8-0.05c1.53-0.02,2.22-0.94,2.2-2.45
			c-0.02-1.05,0.01-2.11,0.01-3.16C557.3,944.36,557.29,925.59,557.28,905.55z M1055.01,952.37c-0.01-6.32-0.04-12.64-0.01-18.96
			c0.02-5.68,0.05-5.73,5.4-5.77c7.16-0.05,14.32,0.18,21.47-0.1c4.09-0.16,6.51,1.33,8.6,4.86c6.55,11.04,13.51,21.84,20.2,32.8
			c1.59,2.61,3.51,3.9,6.64,3.73c5.04-0.27,10.09-0.23,15.14-0.39c1.09-0.03,2.17-0.37,3.74-0.65
			c-7.54-11.99-14.71-23.37-21.87-34.75c-3.66-5.82-3.69-5.87,2.68-8.99c8.5-4.15,14.01-10.75,15.65-20.08
			c0.87-4.92,1.4-10.09,0.93-15.03c-1.09-11.56-6.09-20.97-17.15-26.1c-4.8-2.23-9.89-3.52-15.24-3.53
			c-19.57-0.06-39.15-0.12-58.72-0.15c-7.75-0.01-7.49-0.49-7.5,7.65c0,32.03-0.02,64.05-0.02,96.08c0,1.05,0.02,2.11,0.04,3.16
			c0.03,1.52,0.83,2.34,2.33,2.35c4.84,0.04,9.68,0.12,14.52,0.03c2.67-0.05,3.11-0.59,3.16-3.53
			C1055.08,961.22,1055.01,957.43,1055.01,952.37z M638.05,892.62c-5.28,4.74-9.35,10.37-11.42,17.15
			c-2.63,8.6-2.94,17.44-1.3,26.28c1.92,10.38,6.88,18.97,15.85,24.84c5.71,3.74,12.03,5.92,18.88,6.61
			c10.23,1.02,20.14-0.18,29.75-3.86c2.71-1.04,3.51-0.43,3.56,2.31c0.1,6.69-4.55,12.35-11.53,13.77
			c-9.99,2.04-20.04,1.93-30.08,0.36c-4.36-0.68-8.69-1.48-13.05-2.2c-2.65-0.44-3.37,0.11-3.45,2.88c-0.1,3.16-0.12,6.32-0.05,9.48
			c0.08,3.71,0.67,4.44,4.28,4.92c11.7,1.57,23.44,2.57,35.25,1.95c6.53-0.35,13.03-1.09,19.15-3.58
			c9.42-3.82,15.62-10.54,17.68-20.64c0.71-3.48,1.18-7.07,1.19-10.61c0.1-22.55,0.03-45.1,0.02-67.65c0-1.05,0.01-2.11-0.03-3.16
			c-0.19-4.36-0.36-4.7-4.44-5.47c-3.3-0.62-6.68-0.78-9.97-1.44c-9.32-1.87-18.71-2.65-28.21-2.36
			C658.73,882.58,648.08,885.2,638.05,892.62z M997.79,862.02c-4.32-1.84-8.81-2.68-13.51-2.67c-18.33,0.02-36.66-0.04-54.98-0.05
			c-7.15,0-6.84-0.42-6.83,6.91c0.01,31.42,0.01,62.84,0.02,94.26c0,1.69,0.08,3.38,0.03,5.06c-0.06,2.16,1.01,3.02,3.07,3.01
			c4.42-0.01,8.85,0.09,13.27,0.02c3.72-0.06,3.96-0.28,3.98-3.98c0.04-9.28-0.07-18.56-0.03-27.84c0.02-4.48,0.1-4.48,4.66-4.6
			c0.84-0.02,1.69,0,2.53,0c10.32,0.01,20.65-0.02,30.97,0.04c5.33,0.03,10.5-0.85,15.5-2.6c9.28-3.25,15.73-9.27,19-18.82
			c2.11-6.17,2.5-12.41,2.08-18.71C1016.66,878.83,1011.7,867.98,997.79,862.02z M805.72,885.9c-8.89-4.41-18.23-4.53-27.7-2.72
			c-5.94,1.14-11.83,2.59-18.32,4.04c-0.04-2.37-0.1-4.43-0.11-6.49c-0.02-7.17,0.03-14.34-0.05-21.5
			c-0.03-2.97-0.35-3.24-3.28-3.25c-4.42-0.01-8.84,0.12-13.26,0.15c-1.79,0.01-2.76,0.86-2.92,2.6c-0.1,1.05-0.09,2.1-0.09,3.16
			c0.01,33.73,0.01,67.46,0.04,101.19c0,5.69,0.06,5.7,5.46,5.77c2.11,0.03,4.21,0,6.32,0.01c8.87,0.02,7.86,0.91,7.86-7.59
			c-0.01-17.5-0.05-34.99-0.07-52.49c-0.01-5.8,0.41-6.51,6.15-7.36c4.77-0.71,9.62-1.27,14.44-1.27
			c14.71,0.02,20.3,6.1,20.19,19.73c-0.1,12.02-0.02,24.03-0.01,36.05c0,3.16,0.06,6.32,0.05,9.49c-0.01,2.06,0.9,3.11,3.02,3.09
			c4.21-0.03,8.43,0.07,12.63-0.02c3.21-0.07,3.64-0.43,3.61-3.73c-0.14-18.54-0.32-37.08-0.59-55.62
			C818.95,899.35,814.6,891.78,805.72,885.9z M853.26,922.01c0.02,6.32-0.19,12.66,0.15,18.96c0.22,4.17,0.88,8.4,1.98,12.42
			c1.42,5.18,4.2,9.65,9.19,12.32c10.75,5.73,21.85,5.25,33.06,1.76c0.88-0.28,1.89-1.86,1.93-2.86c0.12-3.99,0-8-0.28-11.99
			c-0.15-2.25-1.05-2.62-3.36-2.32c-4.15,0.54-8.33,1.48-12.47,1.33c-6.14-0.21-8.53-2.49-10.06-8.54
			c-0.67-2.62-1.06-5.37-1.12-8.07c-0.17-7.58-0.16-15.17-0.09-22.76c0.03-3.53,0.39-7.06,0.6-10.59c3.57-1.85,7.39-0.69,11.09-0.89
			c4.2-0.22,8.42,0.01,12.63-0.17c2.77-0.12,3.26-0.73,3.35-3.5c0.09-2.74,0.03-5.48-0.06-8.22c-0.12-3.71-0.32-3.93-3.98-3.95
			c-6.53-0.03-13.05,0.11-19.58,0.03c-3.78-0.04-3.99-0.3-4.04-3.92c-0.07-5.06-0.02-10.12,0.01-15.17c0.01-1.82-0.82-2.72-2.64-2.7
			c-4.63,0.06-9.26,0.12-13.89,0.16c-2.14,0.02-3.03,1.24-3.02,3.19c0,1.47,0.25,2.94,0.29,4.41c0.09,3.79,0.13,7.58,0.18,11.37
			c0.03,1.83-0.92,2.68-2.71,2.69c-2.95,0.01-5.89,0.02-8.84,0.06c-1.48,0.02-2.46,0.84-2.52,2.27c-0.15,3.78-0.22,7.57-0.17,11.35
			c0.02,1.41,0.94,2.29,2.46,2.3c2.53,0.02,5.05-0.03,7.58,0.07c3.85,0.15,4.23,0.49,4.31,4.53
			C853.32,910.63,853.26,915.69,853.26,922.01z M967.68,699.93c1.64-2.66,3.73-5.15,4.85-8.01c3.61-9.26,0.35-19.09-8.03-24.06
			c-2.77-1.64-3.62-3.48-3.61-6.53c0.09-20.85,0.01-41.69,0.02-62.54c0.01-7.85,0.2-7.34-7.11-7.29c-5.76,0.04-5.81,0.06-5.82,5.99
			c-0.03,20.85-0.08,41.69,0.05,62.54c0.02,3.87-0.68,6.45-4.43,8.68c-7.55,4.5-10.66,15.34-7.49,23.38
			c3.86,9.79,12.08,14.64,21.93,12.88C961.42,704.36,964.39,702.79,967.68,699.93z M947.99,320.84c0.01,15.8,0.02,31.6,0.03,47.4
			c0,1.47-0.17,3,0.16,4.4c0.19,0.81,1.09,1.65,1.89,2.08c0.67,0.36,1.64,0.18,2.48,0.17c9.28-0.09,8.36,0.75,8.37-7.92
			c0.02-19.59,0.02-39.18-0.07-58.77c-0.01-3.15,0.33-5.58,3.66-7.21c8.59-4.2,13.54-17.61,6.31-28.55
			c-3.4-5.14-8.02-8.63-14.44-8.97c-8.68-0.47-15.35,3.43-19.19,10.85c-3.7,7.16-3.08,14.8,1.63,21.57c1.51,2.17,3.85,3.89,6.1,5.36
			c2.2,1.44,3.19,3.11,3.12,5.7C947.92,311.15,947.99,315.37,947.99,320.84z M602.97,927.07c0-4.21,0-8.42-0.01-12.63
			c-0.02-8.63,0-17.26-0.09-25.89c-0.03-3.13-0.33-3.44-3.15-3.48c-4.41-0.07-8.83,0.05-13.25,0.06c-1.77,0.01-2.78,0.75-2.79,2.61
			c-0.01,1.05-0.04,2.1-0.04,3.16c0,24,0.01,48,0.01,71.99c0,0.84,0.05,1.68,0.03,2.53c-0.06,2.08,0.89,3.07,3,3.05
			c3.36-0.04,6.73,0,10.09,0.01c6.61,0.02,6.3,0.34,6.27-6.03C603.01,951.07,602.99,939.7,602.97,927.07z M1054.45,621.47
			c0.19,3.54-0.35,7.3,0.69,10.57c3.81,12.01,17.74,16.55,28.95,9.78c8.9-5.37,12.01-16.14,7.47-25.92
			c-4.17-9-14.94-13.27-24.55-9.69C1060.33,608.7,1056.72,613.89,1054.45,621.47z M1056.39,337.09c-2.11,3.37-2.48,7.09-2.33,10.95
			c0.42,10.42,7.5,18.11,17.57,19.01c10.49,0.93,19.42-5.39,21.41-15.49c1.65-8.36-0.71-15.66-7.58-20.79
			c-6.38-4.76-13.53-5.51-20.82-1.72C1061.41,330.74,1058.77,333.12,1056.39,337.09z M907.49,1047.25c1.13-1.9,1.66-4.21,4.04-6.22
			c0.34,1.77,0.71,2.89,0.73,4.01c0.07,3.58-0.05,7.16,0.03,10.74c0.05,2.32,0.68,2.79,3.15,2.88c2.81,0.1,3.54-0.41,3.61-3.02
			c0.18-7.15,0.27-14.31,0.37-21.46c0.04-2.74,0.15-5.48-0.02-8.21c-0.05-0.87-0.7-2.14-1.42-2.46c-3.36-1.52-6.82-0.21-8.36,3.15
			c-1.76,3.82-3.26,7.76-4.97,11.61c-0.56,1.27-1.42,2.41-2.51,4.22c-1.25-2.19-2.22-3.73-3.04-5.35
			c-1.89-3.76-3.66-7.58-5.58-11.33c-1.33-2.59-3.79-3.48-6.91-2.56c-2.28,0.67-1.62,2.67-1.66,4.23
			c-0.2,6.52-0.33,13.04-0.45,19.56c-0.05,2.95-0.1,5.9,0.02,8.84c0.09,2.26,1.17,2.87,3.94,2.79c1.86-0.05,2.61-0.92,2.58-2.74
			c-0.05-3.16-0.04-6.32,0.05-9.47c0.07-2.37-0.38-4.83,0.79-8.16c1.07,1.63,1.69,2.37,2.08,3.21c1.32,2.87,2.51,5.79,3.83,8.66
			c0.52,1.13,1.1,2.31,1.93,3.2c1.68,1.79,3.96,1.46,5.19-0.71C905.76,1051.21,906.36,1049.62,907.49,1047.25z M542.86,1029.92
			c-0.01-1.26,0.08-2.54-0.05-3.79c-0.26-2.48-1.14-3.16-3.74-3.1c-2.16,0.05-2.84,0.68-2.86,3.16c-0.06,5.06,0.02,10.11-0.02,15.17
			c-0.01,0.84-0.31,1.68-0.71,3.7c-4.34-6.17-7.94-11.3-11.55-16.42c-0.97-1.38-1.89-2.79-2.91-4.13c-1.39-1.83-3.38-1.48-5.22-1.15
			c-1.9,0.34-1.91,1.96-1.91,3.47c-0.03,9.48-0.1,18.96-0.06,28.45c0.01,2.81,0.65,3.32,3.33,3.41c2.71,0.09,3.43-0.37,3.49-3.08
			c0.11-4.83-0.07-9.66-0.04-14.49c0.01-1.04,0.39-2.08,0.84-4.29c3.91,5.68,7.12,10.32,10.31,14.98c1.19,1.73,2.28,3.55,3.56,5.21
			c1.31,1.7,4.26,2.26,6.29,1.33c1.76-0.8,1.34-2.44,1.34-3.86C542.93,1046.69,542.89,1038.9,542.86,1029.92z M497.34,1058.21
			c0.61,0.14,1.22,0.41,1.83,0.41c4.36-0.03,4.76-0.34,4.81-4.55c0.08-6.31,0.04-12.63,0.05-18.95c0-3.16,0.1-6.32-0.03-9.47
			c-0.09-2.03-1.29-2.64-4.16-2.65c-1.9-0.01-2.63,0.98-2.63,2.73c0,2.74,0.05,5.47-0.01,8.21c-0.07,3.22,0.21,6.47-0.48,10.84
			c-1.93-2.31-3.17-3.66-4.26-5.13c-2.87-3.89-5.69-7.82-8.51-11.75c-0.61-0.85-1.11-1.8-1.77-2.61c-1.61-1.96-4.13-2.72-6.17-1.87
			c-2.03,0.85-1.64,2.72-1.65,4.35c-0.06,8.84-0.08,17.68-0.1,26.52c0,0.84-0.03,1.7,0.18,2.5c0.15,0.54,0.59,1.15,1.08,1.42
			c2.7,1.52,5.56-0.05,5.64-3.14c0.1-3.79-0.01-7.58,0.03-11.37c0.02-1.79,0.16-3.58,0.3-6.47
			C487.66,1044.11,491.75,1051.18,497.34,1058.21z M555.75,1026.64c-6.49,6.93-7.42,14.64-3.49,23.2c2.76,6.02,7.51,8.69,13.88,9.17
			c6.71,0.51,11.99-2.05,15.38-7.72c1.57-2.62,2.48-5.82,2.94-8.87c1.42-9.46-5.59-18.65-15.06-19.84
			C564.71,1021.99,560.21,1022.83,555.75,1026.64z M1191.23,1040.98c-0.02,3.78-0.07,7.57-0.06,11.35c0.01,5.75,0.36,6.33,3.63,6.29
			c2.95-0.04,3.22-0.53,3.27-5.95c0.02-1.68-0.07-3.37,0.06-5.04c0.17-2.28,2.14-3.29,3.95-2c1,0.71,1.82,1.72,2.56,2.71
			c1.64,2.18,3.15,4.45,4.76,6.65c3.03,4.15,4.11,4.43,9.66,2.51c-2.02-4.99-6.7-8.46-8.25-13.78c0.97-0.6,1.67-1.05,2.39-1.47
			c3.94-2.27,5.42-6.03,4.92-10.16c-0.55-4.59-3.74-7.37-8.25-8.47c-0.81-0.2-1.64-0.44-2.47-0.45c-4.2-0.07-8.4-0.18-12.6-0.05
			c-2.87,0.09-3.49,0.81-3.57,4C1191.12,1031.31,1191.23,1035.51,1191.23,1040.98z M705.76,1037.34c-0.21,0-0.42,0.02-0.63-0.01
			c-4.08-0.61-4.55-1.09-4.34-4.44c0.17-2.65,0.69-3.12,4.22-3.26c3.36-0.13,6.73-0.01,10.08-0.19c2.11-0.12,2.77-1.13,2.72-3.41
			c-0.04-2.23-0.67-2.98-3.04-3.01c-5.46-0.06-10.93-0.03-16.39,0.07c-4.33,0.08-4.74,0.42-4.81,4.66
			c-0.11,6.72-0.03,13.44-0.05,20.16c-0.01,2.52-0.02,5.05-0.07,7.57c-0.04,2.06,0.86,3.14,2.98,3.13
			c6.3-0.01,12.61,0.07,18.91-0.03c2.17-0.03,2.63-0.83,2.62-3.37c-0.01-2.53-0.49-3.26-2.68-3.33c-3.36-0.11-6.73-0.09-10.09-0.01
			c-4.17,0.1-4.39-0.84-4.75-4.88c-0.24-2.69,0.42-3.47,3.05-3.57c2.73-0.11,5.47,0.08,8.19,0c2.85-0.08,3.63-0.9,3.58-3.18
			c-0.05-2.17-1.31-2.93-3.26-2.93C710.33,1037.33,708.65,1037.34,705.76,1037.34z M1239.46,1043.43c2.31,0.02,4.63,0.12,6.93,0.03
			c2.36-0.09,3.07-0.88,3.07-3.02c-0.01-2.18-0.64-2.93-3.05-3.05c-2.94-0.14-5.88-0.01-8.82-0.14c-0.75-0.03-2.02-0.49-2.1-0.93
			c-0.32-1.79-0.57-3.71-0.2-5.44c0.14-0.64,2.05-1.22,3.18-1.26c3.78-0.16,7.56,0.01,11.34-0.1c2.28-0.07,2.85-0.84,2.9-3.18
			c0.05-2.38-0.56-3.3-2.69-3.32c-6.51-0.06-13.03,0.02-19.54,0.05c-1.74,0.01-2.78,0.8-2.78,2.64c0,10.1,0.01,20.19,0,30.29
			c0,1.86,0.96,2.65,2.73,2.65c6.3-0.01,12.61,0.03,18.91-0.05c2.97-0.04,3.49-0.63,3.45-3.18c-0.05-2.87-0.68-3.5-3.85-3.53
			c-3.15-0.03-6.3,0.11-9.45,0.06c-4.52-0.06-4.85-0.58-4.7-5.17C1234.86,1044.33,1235.92,1043.32,1239.46,1043.43z M757.71,1034.04
			c-0.4,3.11-1.38,6.27-1.08,9.31c1.23,12.69,12.29,18.24,22.68,14.92c8.15-2.6,12.79-11.97,11.18-21.66
			c-1.45-8.67-7.7-13.95-16.77-13.91C766.28,1022.73,760.86,1026.01,757.71,1034.04z M983.75,1043.5c-0.03,4-0.04,8-0.09,12
			c-0.03,2.02,0.77,3.17,2.94,3.16c6.31-0.04,12.62,0.02,18.93-0.11c2.28-0.05,2.91-0.97,2.84-3.23c-0.06-1.83-0.45-3.36-2.77-3.36
			c-3.79,0-7.58,0.02-11.36-0.11c-3.24-0.11-3.55-0.51-3.61-3.71c-0.07-4.09,0.36-4.54,4.68-4.65c2.52-0.06,5.05,0.06,7.56-0.1
			c0.66-0.04,1.58-0.75,1.83-1.37c0.87-2.13-0.5-4.47-2.72-4.62c-2.72-0.18-5.47-0.01-8.2-0.17c-2.71-0.15-3.3-1.02-3.24-4.19
			c0.04-2.61,0.61-3.29,3.36-3.4c3.57-0.14,7.15-0.02,10.73-0.15c2.37-0.09,2.87-0.73,2.91-3.11c0.04-2.4-0.49-3.22-2.74-3.26
			c-5.89-0.08-11.78-0.07-17.67,0.05c-3.05,0.06-3.39,0.49-3.43,3.91C983.64,1032.13,983.71,1037.18,983.75,1043.5z
			 M1102.51,1023.06c-5.47,0-10.94,0-16.41,0.01c-1.97,0-3.21,0.81-3.22,2.97c-0.03,9.9-0.08,19.79-0.11,29.69
			c-0.01,1.71,0.69,2.89,2.54,2.9c6.31,0.01,12.62,0.04,18.93-0.1c2.18-0.05,2.74-1.25,2.68-4.09c-0.04-1.94-1.04-2.55-2.79-2.53
			c-3.15,0.03-6.31,0.05-9.47-0.01c-4.59-0.08-5.24-0.77-5.01-5.05c0.14-2.63,0.69-3.22,3.51-3.31c2.52-0.08,5.05,0.03,7.57,0.06
			c1.8,0.02,2.69-0.8,2.67-2.66c-0.02-1.88-0.48-3.45-2.66-3.55c-2.52-0.12-5.05,0.07-7.57-0.04c-0.98-0.04-2.65-0.31-2.78-0.81
			c-0.47-1.75-0.72-3.7-0.4-5.45c0.12-0.66,1.98-1.36,3.09-1.43c3.35-0.19,6.73-0.08,10.09-0.09c1.67,0,2.86-0.58,2.99-2.47
			C1106.32,1025.11,1106.45,1023.16,1102.51,1023.06z M1179,1051.59c0.17-0.61,0.36-1.21,0.52-1.83c2.06-8.11,0.8-16.36,1.04-24.55
			c0.05-1.93-1.74-2.09-3.25-2.19c-1.56-0.1-3.07,0.07-3.37,1.99c-0.19,1.24-0.13,2.52-0.16,3.78c-0.13,5.48-0.21,10.96-0.4,16.44
			c-0.09,2.62-0.82,5.03-3.38,6.36c-5.47,2.83-11.08-0.07-11.44-6.16c-0.31-5.26-0.12-10.54-0.17-15.81
			c-0.01-1.47,0.05-2.96-0.12-4.42c-0.21-1.9-1.65-2.21-3.25-2.18c-1.72,0.03-3.76-0.02-3.78,2.3c-0.08,7.79-0.2,15.6,0.21,23.37
			c0.21,3.97,2.74,7.01,6.42,8.79C1165.56,1061.19,1173.2,1059.31,1179,1051.59z M947.85,1058.4c6.94,0.07,13.89,0.15,20.83,0.22
			c1.05,0.01,2.11-0.02,3.16-0.01c1.81,0.01,2.64-0.92,2.8-2.68c0.27-2.87-0.46-3.81-3.4-3.89c-2.95-0.08-5.9,0.02-8.85-0.04
			c-1.33-0.03-2.66-0.25-4.66-0.46c1.28-2.1,2.05-3.56,2.99-4.89c3.9-5.5,7.88-10.94,11.74-16.47c0.82-1.18,1.46-2.55,1.86-3.93
			c0.48-1.65-0.47-2.96-2.25-2.99c-7.58-0.15-15.16-0.2-22.74-0.21c-1.52,0-2.14,1.04-2.2,2.51c-0.13,2.79,0.71,3.88,3.52,4.01
			c2.73,0.13,5.48-0.02,8.21,0.06c1.39,0.04,2.78,0.31,4.16,0.47c0.31,2.75-1.38,4.22-2.58,5.88c-3.82,5.29-7.75,10.52-11.53,15.84
			C947.65,1053.59,945.59,1055.28,947.85,1058.4z M1060.07,1052.21c-2.82,0.07-5.37-0.73-7.73-2.28c-1.72-1.13-2.75-0.17-3.4,1.38
			c-1.11,2.68-0.57,4.48,2.13,5.68c5.59,2.48,11.39,2.82,17.15,0.62c2.39-0.91,4.18-2.53,5.12-5.19c2.21-6.25,0.18-11.35-5.99-13.78
			c-2.72-1.08-5.64-1.65-8.38-2.68c-1.74-0.65-3.71-1.53-3.28-3.96c0.39-2.21,2.21-3.08,4.18-3.14c1.85-0.06,3.75,0.23,5.57,0.64
			c1.42,0.31,2.72,1.12,4.12,1.53c0.49,0.14,1.3-0.06,1.68-0.41c1.78-1.69,1.53-4.75-0.53-5.8c-4.86-2.47-10-3.26-15.25-1.59
			c-5.42,1.72-7.99,6.32-7.02,11.77c0.58,3.26,2.74,5.22,5.41,6.54c2.61,1.3,5.47,2.11,8.21,3.13c3.77,1.4,5.43,2.98,4.83,4.84
			C1065.98,1052.36,1063.5,1052.2,1060.07,1052.21z M822.78,1027.32c-2.41-3.08-5.82-4.02-9.47-4.18
			c-3.56-0.16-7.13-0.14-10.69-0.02c-3.9,0.12-4.2,0.43-4.23,4.5c-0.08,9.03-0.08,18.06-0.06,27.08c0.01,3.54,0.61,4.07,3.96,3.97
			c2.83-0.08,3.26-0.52,3.19-3.3c-0.05-2.1-0.11-4.19-0.2-6.29c-0.09-2.13,0.98-2.89,3.02-3.05c3.12-0.24,6.32-0.37,9.29-1.23
			c5.32-1.53,7.41-4.68,7.69-10.21C825.39,1032.18,824.73,1030.04,822.78,1027.32z M631.14,1034.85
			c-2.63,6.63-5.23,13.28-7.92,19.89c-1.36,3.33,0.27,4.04,3.3,3.85c1.64-0.1,2.75-0.87,3.36-2.38c0.47-1.17,1.05-2.3,1.43-3.49
			c1.14-3.59,4.1-3.12,6.75-2.93c3.12,0.22,6.98-1.41,8.69,2.99c0.3,0.78,0.58,1.58,0.94,2.34c1.53,3.27,2.32,3.74,5.79,3.49
			c1.99-0.14,2.68-1.04,1.96-2.9c-1.66-4.31-3.41-8.57-5.14-12.85c-2.28-5.64-4.61-11.26-6.84-16.92c-0.8-2.02-2.09-2.96-4.28-2.96
			c-2.14,0-3.55,0.69-4.33,2.82C633.85,1028.56,632.61,1031.23,631.14,1034.85z M607.78,1040.48c-1.01,1.92-1.03,4.4-3.35,6.14
			c-2.6-6.79-5.04-13.26-7.56-19.7c-1.36-3.48-1.91-3.78-5.56-3.71c-2.35,0.04-3.12,1.01-2.31,3.15c1.12,2.94,2.41,5.82,3.57,8.75
			c2.71,6.84,5.45,13.67,8.04,20.56c0.77,2.05,1.89,3.03,4.15,3.02c2.42-0.01,3.8-0.87,4.67-3.25c3.63-9.86,7.46-19.65,11.18-29.47
			c0.27-0.7,0.21-1.52,0.3-2.27c-7.48-1.29-6.93,0.44-8.59,4.67C610.87,1032.08,609.54,1035.84,607.78,1040.48z M1134.17,1052.12
			c-8.06,2.1-13.88-5.09-12.97-13.36c0.63-5.71,4.86-9.58,10.63-9.34c2.45,0.1,4.9,0.91,7.29,1.62c1.84,0.54,2.79-0.13,3.34-1.77
			c0.77-2.31,0.32-3.65-1.62-4.83c-6.93-4.19-18.62-1.58-23.27,5.07c-3.97,5.68-5.06,16.46,0.06,23.15
			c5.01,6.55,13.36,7.14,21.29,5.56c1.17-0.23,2.3-1.03,3.28-1.78c1.84-1.42,1.87-2.65,0.63-4.96c-1.07-2.01-2.38-1.94-4.12-0.89
			C1137.63,1051.2,1136.38,1051.51,1134.17,1052.12z M667.94,1049.66c0.03,2.31-0.11,4.64,0.17,6.92c0.09,0.75,1.16,1.79,1.95,1.98
			c3.1,0.74,4.59-0.59,4.6-3.92c0.03-5.47-0.12-10.94,0-16.4c0.06-2.66,0.57-5.31,0.88-7.97c2.26-0.22,4.53-0.45,6.79-0.67
			c0.21-0.02,0.42-0.02,0.63-0.05c2.29-0.32,2.99-1.08,2.98-3.23c-0.01-2.16-0.7-3.09-3.01-3.13c-7.77-0.13-15.54-0.13-23.31-0.09
			c-0.75,0-2.01,0.41-2.15,0.89c-0.4,1.33-0.61,2.86-0.32,4.18c0.14,0.63,1.56,1.19,2.48,1.38c1.21,0.26,2.51,0.1,3.77,0.16
			c4.29,0.23,4.42,0.31,4.51,4.87C668.01,1039.19,667.95,1043.82,667.94,1049.66z M858.1,1029.43c2.18-1.2,1.77-3.19,1.23-4.96
			c-0.55-1.81-2.32-1.44-3.76-1.45c-7.35-0.04-14.7-0.09-22.05-0.07c-2.78,0.01-3.67,1.2-3.3,3.99c0.26,1.97,1.2,3.02,3.34,2.83
			c1.67-0.15,3.35-0.14,5.03-0.12c1.7,0.02,2.78,0.9,2.97,2.62c0.18,1.67,0.32,3.35,0.31,5.02c-0.03,6.09-0.13,12.19-0.2,18.28
			c-0.03,2.45,0.49,3.05,2.75,3.17c2.76,0.14,3.76-0.51,3.82-2.83c0.16-6.3,0.2-12.61,0.35-18.91c0.05-2.23-0.53-5.29,0.66-6.47
			c1.26-1.24,4.28-0.7,6.54-0.92C856.21,1029.57,856.64,1029.6,858.1,1029.43z M592.44,856.82c-2.84,0.11-5.68,0.23-8.51,0.34
			c-0.23,2.88-0.52,5.76-0.65,8.65c-0.09,1.88-0.05,3.77,0.12,5.64c0.25,2.78,0.82,3.53,3.33,3.6c4.8,0.14,9.61,0.07,14.42-0.02
			c1.71-0.03,2.64-1.08,2.63-2.85c-0.03-4.18-0.08-8.37-0.07-12.55c0-2.21-1.28-2.89-3.21-2.89
			C598.2,856.76,595.9,856.8,592.44,856.82z M937.76,1040.98c0-0.84,0-1.68,0-2.51c0-3.77,0.06-7.55-0.02-11.32
			c-0.07-3.44-0.59-4.02-3.27-4.13c-2.77-0.11-3.39,0.52-3.54,3.76c-0.1,2.09-0.17,4.19-0.17,6.28c-0.01,7.54-0.05,15.09,0.04,22.63
			c0.03,2.57,0.8,3.08,3.6,3.01c2.75-0.07,3.35-0.55,3.39-3.26C937.85,1051.04,937.77,1046.64,937.76,1040.98z M870.28,1058.65
			c2,0.01,3.83-0.1,3.83-2.86c-0.02-10.06,0.06-20.11,0-30.17c-0.01-2.14-0.78-2.54-3.4-2.51c-1.82,0.02-3.39,0.29-3.39,2.64
			c-0.01,10.27-0.06,20.53,0.06,30.8C867.39,1057.23,868.63,1057.91,870.28,1058.65z M463.73,1043.5c0-5.66,0.05-11.31-0.03-16.97
			c-0.04-2.81-0.96-3.44-3.95-3.42c-2.29,0.02-2.77,1.41-2.76,3.3c0.02,5.03,0.02,10.06,0.02,15.08c0.01,4.82,0.02,9.64,0.01,14.46
			c0,2.3,1.46,2.72,3.33,2.73c2.5,0.01,3.29-0.47,3.36-2.61C463.82,1052.3,463.73,1048.53,463.73,1043.5z M727.14,1054.98
			c-0.07,2.6,1.23,3.86,3.79,3.76c2.21-0.08,3.82-1.38,4-3.2c0.19-1.9-0.84-3.16-2.4-4c-1.77-0.96-2.92-0.49-5.09,1.95
			C727.32,1053.64,727.33,1053.89,727.14,1054.98z M1262.89,1051.19c-0.75,1.17-2.08,2.33-2.1,3.52c-0.02,1.18,1,2.95,2.04,3.43
			c1.04,0.48,2.93,0.06,3.98-0.65c1.58-1.07,1.63-3.1,0.53-4.5C1266.54,1051.98,1264.98,1051.58,1262.89,1051.19z M1021.7,1057.47
			c0.25-0.56,0.72-1.13,0.71-1.69c-0.01-2.85-1.19-4.62-2.98-4.72c-2.07-0.11-3.8,2.18-3.64,4.92c0.08,1.38,0.72,2.45,2.24,2.48
			C1019.04,1058.48,1020.05,1058.22,1021.7,1057.47z"/>
		<path class="st1" d="M1107.36,685.97c-1.27,2.17-2.31,4.51-3.83,6.48c-12.29,15.88-26,30.39-41.45,43.27
			c-19.02,15.86-39.44,29.58-61.79,40.25c-29.07,13.88-59.44,23.58-91.45,28.05c-19.89,2.78-39.79,4.11-59.85,2.89
			c-24.06-1.47-47.58-5.91-70.78-12.46c-26.53-7.49-51.39-18.78-75.02-32.74c-27.93-16.49-52.25-37.5-73.7-61.77
			c-20.33-23.01-36.76-48.66-49.27-76.65c-8.69-19.44-15.13-39.68-19.36-60.68c-5.45-27.08-6.82-54.33-5.14-81.78
			c0.58-9.44,2.17-18.83,3.38-28.23c0.52-4.06,1.66-8,2.17-12.08c0.52-4.16,1.75-8.24,2.74-12.34c1.04-4.3,2.08-8.61,3.27-12.88
			c1.13-4.06,2.4-8.09,3.71-12.09c1.32-4,2.69-7.99,4.19-11.93c10.57-27.77,24.84-53.45,43.08-76.94
			c12.06-15.54,25.76-29.45,40.71-42.14c16.56-14.06,34.5-26.04,53.79-36.15c15.14-7.93,30.64-14.92,46.88-20.07
			c11.39-3.61,23.03-6.56,34.72-9c7.24-1.51,14.62-2.62,21.94-3.76c7.66-1.19,15.49-1.44,23.26-1.66
			c9.48-0.26,18.97-0.18,28.45-0.02c11.78,0.19,23.43,1.69,35.08,3.39c13.95,2.03,27.62,5.18,41.05,9.33
			c5.61,1.73,11.09,3.92,16.51,6.19c6.4,2.68,12.67,5.66,18.98,8.57c1.85,0.85,3.78,1.68,5.03,3.95c-1.17,0-2,0.13-2.78-0.02
			c-7.2-1.42-14.37-2.98-21.58-4.31c-4.33-0.8-8.69-1.48-13.07-1.83c-18.69-1.51-37.36-2.19-56.12-0.47
			c-12.59,1.15-25.06,2.82-37.38,5.46c-7.36,1.58-14.61,3.78-21.77,6.12c-8.8,2.88-17.56,5.93-26.15,9.38
			c-19.25,7.73-37.01,18.16-53.87,30.23c-15.33,10.98-29.27,23.51-41.8,37.5c-12.23,13.66-23.18,28.37-32.57,44.19
			c-8.09,13.63-14.76,27.91-20.33,42.73c-0.79,2.11-1.96,4.08-2.96,6.11c-0.18,0.36-0.53,0.72-0.53,1.08
			c0.08,8.6-4.71,16.09-5.58,24.46c-2.78,4.85-1.91,10.44-3.06,15.64c-1.18,5.31-1.33,10.84-2.03,16.27
			c-1.94,15.12-1.77,30.3-1.06,45.47c0.7,14.95,2.55,29.77,5.87,44.39c0.5,2.22,0.5,4.54,0.88,6.8c0.15,0.93,0.66,1.8,1.04,2.69
			c0.4,0.93,1.1,1.81,1.22,2.77c0.51,3.92,1.5,7.59,3.49,11.08c1.83,3.21,1.99,7.06,3.49,10.54c2.22,5.14,4.5,10.25,6.91,15.28
			c10.69,22.37,24.12,43.01,40.26,61.8c22.63,26.35,49.33,47.58,80.24,63.55c26.6,13.74,54.71,22.93,84.1,28.14
			c20.58,3.64,41.42,5.13,62.29,3.81c27.84-1.76,54.97-7.21,81.23-16.94c19.26-7.14,37.47-16.26,54.59-27.51
			c12.51-8.22,24.53-17.13,35.18-27.74c1.18-1.18,2.58-2.15,4.23-3.43C1107.39,685.98,1107.36,685.97,1107.36,685.97z"/>
		<path class="st1" d="M872.92,519.52c-8.83-12.1-17.33-23.89-26.02-35.54c-2.15-2.88-3-5.8-2.98-9.36
			c0.12-21.73,0.09-43.45,0.11-65.18c0.01-5.05,0.04-10.1,0.07-15.15c0.01-1.76,0.89-2.75,2.69-2.8c1.26-0.04,2.53-0.04,3.79-0.04
			c40.88,0,81.76-0.01,122.65-0.01c10.76,0,21.43,0.86,31.89,3.54c34.09,8.71,55.33,30.24,62.5,64.66
			c3.83,18.4,2.73,36.91-4.52,54.62c-3.28,8.01-7.48,15.36-13.41,21.91c-3.51,3.88-6.77,7.96-10.77,11.39
			c-9.81,8.42-21.32,13.17-33.78,16.03c-7.85,1.8-15.77,2.31-23.78,2.27c-18.12-0.08-36.25-0.01-54.37-0.01
			c-1.47,0-3.01,0.2-4.4-0.13c-0.8-0.19-1.72-1.18-1.98-2c-0.36-1.16-0.19-2.5-0.19-3.76c-0.02-14.55-0.02-29.11-0.03-43.66
			c0-0.84-0.02-1.69,0.03-2.53c0.09-1.48,0.91-2.31,2.4-2.36c1.47-0.05,2.95-0.02,4.42-0.02c16.65,0,33.3-0.12,49.94,0.05
			c6.08,0.06,11.69-1.47,17.05-3.99c11.2-5.27,18.27-18.3,16.91-30.76c-1.75-16.12-11.15-26.12-27.19-28.76
			c-2.48-0.41-5.03-0.51-7.55-0.52c-20.86-0.04-41.72-0.03-62.59-0.03c-1.05,0-2.11,0.04-3.16,0.02c-2.01-0.05-3.19,0.76-3.16,2.93
			c0.02,1.69,0,3.37,0,5.06c0.03,34.8,0.06,69.61,0.08,104.41c0,1.65-0.14,3.3-0.25,5.72c-5.4-4.47-8-10.29-11.91-15.04
			c-4-4.86-7.61-10.04-11.3-15.14C880.42,530.22,876.82,525.04,872.92,519.52z"/>
		<path class="st1" d="M793.23,428.32c5.75,7.83,11.34,15.23,16.62,22.85c3.93,5.66,8,11.16,12.41,16.47
			c3.94,4.75,7.26,10.07,10.89,15.1c7.9,10.94,16.27,21.5,24.38,32.27c14.21,18.84,28.1,37.91,42.12,56.89
			c0.38,0.51,0.62,1.14,1.07,1.56c6.04,5.64,7.8,12.62,6.89,20.63c-0.36,3.12-0.05,6.32-0.07,9.48c-0.01,1.78-0.92,2.71-2.71,2.73
			c-1.26,0.02-2.53,0.05-3.79,0.05c-13.7-0.01-27.4-0.15-41.09,0.06c-3.81,0.06-6.26-1.25-8.42-4.27
			c-16.21-22.59-32.5-45.13-48.82-67.65c-10.14-13.99-20.37-27.91-30.57-41.84c-0.34-0.46-0.91-0.75-2.03-1.65
			c-0.15,1.86-0.36,3.17-0.36,4.49c0.01,34.59,0.03,69.18,0.06,103.77c0.01,7.77,0.52,7.09-7.19,7.1
			c-16.43,0.02-32.87,0.07-49.3,0.1c-2.64,0.01-2.86-0.15-2.98-2.75c-0.08-1.68-0.03-3.37-0.03-5.06
			c0.02-67.07,0.04-134.15,0.06-201.22c0-0.21,0-0.42,0-0.63c0.05-5.28,0.05-5.36,5.18-5.37c15.17-0.04,30.34,0.07,45.51-0.09
			c3.55-0.04,5.89,1.19,7.94,4.03C776.88,406.32,784.94,417.13,793.23,428.32z"/>
		<path class="st1" d="M1097.29,525.94c-1.05,1.41-1.84,2.43-2.32,3.58c-6.42,15.21-16.05,28.11-28.04,39.34
			c-0.29,0.27-0.44,0.68-0.98,1.54c1.05,0.26,1.92,0.65,2.78,0.65c20.44,0.05,40.88,0.01,61.32,0.14c2.91,0.02,4.41-1.05,5.98-3.51
			c5.15-8.09,11.83-11.49,22.14-9.44c9.08,1.81,15.7,11.73,14.75,21.54c-0.97,10.02-9.08,17.47-18.77,17.93
			c-8.38,0.4-14.3-3.29-18.24-10.14c-1.91-3.32-4.17-4.15-7.64-4.13c-23.18,0.09-46.36,0.23-69.53-0.05
			c-6.49-0.08-12.15,0.85-17.81,4.45c-4.89,3.11-10.7,4.86-16.24,6.81c-2.41,0.85-3.54,1.96-3.33,4.46c0.05,0.63,0.01,1.26,0.01,1.9
			c0,20.04,0.1,40.08-0.08,60.11c-0.03,3.47,1.17,5.22,4.03,6.96c9.42,5.71,11.69,19.18,5.19,29.03c-5.61,8.5-18.09,10.8-26.97,4.98
			c-10.96-7.19-11.26-25.72-0.54-33.33c1.03-0.73,2.34-1.16,3.14-2.07c0.9-1.02,1.6-2.36,1.96-3.68c0.33-1.18,0.09-2.51,0.09-3.78
			c0-20.46,0-40.92,0-61.38c0-2.53-0.06-5.07,0.05-7.59c0.17-4.02,0.54-4.39,4.64-5.44c25.14-6.48,44.96-20.72,59.74-41.86
			c14.52-20.76,20.76-44.2,19.56-69.33c-0.99-20.73-6.5-40.36-18.48-57.71c-14.53-21.03-34.62-34.06-59.05-40.73
			c-0.81-0.22-1.66-0.32-2.47-0.53c-3.73-0.97-4.06-1.26-4.07-5.17c-0.03-12.66,0.02-25.31,0.04-37.97
			c0.02-7.8-0.09-15.61,0.12-23.41c0.09-3.33-1.06-5.34-3.86-7.22c-7.89-5.3-10.87-13.6-8.64-22.61
			c2.49-10.07,14.52-17.07,24.04-14.28c12.51,3.66,16.54,17.29,13.55,26.24c-1.52,4.55-3.93,8.46-8.32,10.7
			c-2.82,1.44-3.75,3.51-3.74,6.61c0.09,17.29,0.05,34.59,0.01,51.89c-0.01,3.56,0.23,4.34,3.77,5.36
			c14.78,4.28,27.79,12,39.7,21.57c2.49,2.01,4.9,2.86,8,2.84c18.75-0.1,37.51-0.13,56.26-0.05c3.41,0.02,5.81-0.63,7.8-3.89
			c4.21-6.89,10.7-9.67,18.8-9.22c4.52,0.25,8.14,2.18,11.27,5.07c5.9,5.46,7.82,15.97,4.54,23.44
			c-3.62,8.22-11.29,12.69-20.35,11.91c-6.13-0.53-10.63-3.7-14.06-8.6c-0.84-1.2-1.52-2.53-2.19-3.84
			c-0.76-1.49-1.98-2.11-3.57-2.16c-0.84-0.02-1.69-0.06-2.53-0.06c-15.17-0.01-30.34-0.02-45.51,0.01c-1.01,0-2.02,0.25-3.22,0.41
			c0.28,0.83,0.34,1.51,0.69,1.94c9.93,12.12,15.99,26.15,20.25,41.07c1.89,6.62,1.86,6.63,8.72,6.63
			c13.06,0.01,26.13-0.05,39.19,0.08c3.06,0.03,5.05-0.86,6.69-3.57c2.93-4.83,7.01-8.2,12.86-9.35
			c9.71-1.92,20.07,3.64,22.91,13.29c3.7,12.55-2.7,22.59-12.77,26.06c-8.38,2.89-17.34-0.54-22.53-8.39
			c-0.35-0.53-0.71-1.07-0.9-1.66c-1.19-3.73-3.94-4.52-7.45-4.21c-2.09,0.18-4.21,0.05-6.32,0.05c-10.75,0-21.49-0.03-32.24,0.01
			c-4.13,0.01-4.66,0.4-4.15,4.26c0.92,6.96,0.57,13.85,0.08,20.81c-0.48,6.77-1.79,13.33-3.24,19.91c-0.22,0.99-0.38,2-0.64,3.34
			c1.7,0.19,3.11,0.47,4.53,0.48c14.54,0.06,29.08-0.01,43.62,0.16c2.88,0.03,4.71-0.78,6.2-3.26c1.96-3.28,4.52-6.08,8.06-7.82
			c7.36-3.62,17.6-1.88,23.43,4.02c5.33,5.39,7,15.39,3.74,22.39c-3.85,8.28-11.74,12.93-20.39,11.87
			c-5.78-0.71-10.14-3.88-13.54-8.46c-0.75-1.01-1.44-2.11-1.9-3.27c-1.13-2.83-3.23-3.44-6.06-3.38
			c-7.58,0.15-15.17,0.03-22.76,0.09C1116.64,525.37,1107.17,525.51,1097.29,525.94z M1160.16,394.72c-0.73-1.24-1.25-2.7-2.24-3.68
			c-2.82-2.82-6.5-2.84-9.57-0.28c-2.27,1.89-3.01,5.87-1.59,8.56c1.69,3.21,5.61,4.59,9.11,3.22
			C1158.98,401.31,1160.27,398.91,1160.16,394.72z M1175.17,513.74c-3.17-1.59-5.71-0.42-7.9,1.91c-2.08,2.21-2.35,5.55-0.79,8.18
			c1.55,2.61,4.63,4.04,7.52,3.49c2.87-0.54,4.68-2.45,5.27-5.54C1179.89,518.51,1178.69,516.02,1175.17,513.74z M1011.77,277.06
			c-1.08,0.94-2.42,1.7-3.2,2.85c-1.92,2.86-1.53,6.17,0.71,8.62c2.27,2.48,5.18,3.13,7.89,1.76c3.05-1.54,4.55-4.35,4.14-7.69
			C1020.81,278.63,1018.03,276.74,1011.77,277.06z M1165.77,456.89c-0.61,2.61-0.12,4.97,1.61,7.04c2.21,2.63,7.93,2.76,10.15,0.23
			c2.6-2.97,2.45-7.48-0.32-10.23c-2.73-2.7-6.28-2.7-9.49,0.07C1167.1,454.54,1166.69,455.31,1165.77,456.89z M1151.39,570.96
			c-1.23,0.74-2.71,1.25-3.64,2.26c-2.41,2.64-1.83,7.23,0.96,9.44c3.41,2.71,7.18,2.38,9.99-0.88c2.44-2.83,2.11-7.21-1.08-9.4
			C1156.2,571.4,1154.16,571.31,1151.39,570.96z M1010.06,680.16c-0.52,0.65-1.18,1.22-1.54,1.95c-1.87,3.82-0.6,7.63,3.08,9.42
			c3.4,1.66,7.55,0.13,9.52-3.51c1.65-3.05,0.2-7-3.32-8.92C1015.4,677.79,1013.05,677.77,1010.06,680.16z"/>
		<path class="st1" d="M1266.67,923.62c-0.9,7.28-2.24,13.83-5.22,19.97c-7.22,14.87-19.64,22.65-35.31,25.76
			c-13.17,2.61-26.43,2.37-39.45-0.88c-17.79-4.44-29.58-15.56-34.44-33.35c-1.48-5.43-2.09-11.21-2.26-16.85
			c-0.33-10.97,0.45-21.82,4.74-32.22c5.73-13.89,16.11-22.39,30.13-26.56c13.1-3.9,26.44-4.12,39.91-1.72
			c4.59,0.82,8.99,1.9,13.28,3.72c13.23,5.61,21.85,15.34,26.08,29c1.75,5.65,2.83,11.42,2.73,17.38
			C1266.76,912.92,1266.75,917.97,1266.67,923.62z M1246.22,915.56c0.26-6.78-0.45-13.43-2.56-19.91
			c-3.51-10.77-10.96-17.11-21.87-19.64c-7.06-1.64-14.29-2.01-21.33-1.01c-15.89,2.26-26.57,8.46-28.56,30.27
			c-0.4,4.38,0.02,8.84-0.12,13.25c-0.17,5.14,0.96,10.01,2.61,14.81c2.94,8.56,8.77,14.28,17.35,16.94
			c3.78,1.17,7.76,1.93,11.71,2.32c7.57,0.76,15.11,0.4,22.41-2.12c6.4-2.21,11.37-6.08,14.87-11.99
			C1244.73,931.74,1246.04,924.41,1246.22,915.56z"/>
		<path class="st1" d="M557.28,906.19c0.01,19.4,0.02,38.18,0.02,56.95c0,1.05-0.02,2.11-0.01,3.16c0.02,1.51-0.67,2.43-2.2,2.45
			c-5.27,0.05-10.53,0.06-15.8,0.05c-1.92,0-2.92-1.38-3.97-2.75c-8.15-10.73-16.34-21.44-24.52-32.16
			c-10.22-13.4-20.44-26.8-30.69-40.18c-0.73-0.96-1.65-1.77-2.7-2.88c-1.72,1.86-1.06,3.83-1.06,5.55
			c-0.02,22.15,0.03,44.29,0.06,66.44c0.01,5.58,1.19,6.16-6.27,6.03c-3.16-0.05-6.32-0.02-9.48-0.06
			c-1.96-0.02-3.21-0.83-3.15-3.01c0.03-1.05,0.02-2.11,0.02-3.16c0.01-32.06,0.02-64.12,0.02-96.18c0-7.95-0.28-7.01,7.26-7.07
			c2.74-0.02,5.49,0.18,8.21,0.02c2.86-0.16,4.57,1.1,6.27,3.33c16.57,21.79,33.25,43.5,49.92,65.21c2.18,2.84,4.43,5.61,6.69,8.38
			c0.22,0.27,0.88,0.51,1.1,0.37c0.47-0.29,1.11-0.84,1.1-1.28c-0.03-3.37-0.29-6.73-0.3-10.1c-0.04-19.83-0.03-39.65-0.03-59.48
			c0-1.05-0.04-2.11,0.02-3.16c0.16-2.94,0.35-3.21,3.36-3.29c4.21-0.11,8.43-0.11,12.64-0.03c3.12,0.05,3.28,0.28,3.43,3.17
			c0.05,0.84,0,1.69,0,2.53C557.27,878.56,557.28,892.06,557.28,906.19z"/>
		<path class="st1" d="M1055.01,953c0.01,4.42,0.08,8.22,0.01,12.01c-0.05,2.94-0.49,3.49-3.16,3.53
			c-4.84,0.09-9.68,0.01-14.52-0.03c-1.5-0.01-2.3-0.83-2.33-2.35c-0.02-1.05-0.04-2.11-0.04-3.16c0.01-32.03,0.02-64.05,0.02-96.08
			c0-8.14-0.26-7.66,7.5-7.65c19.57,0.03,39.15,0.09,58.72,0.15c5.34,0.02,10.43,1.3,15.24,3.53c11.06,5.13,16.06,14.54,17.15,26.1
			c0.47,4.95-0.07,10.11-0.93,15.03c-1.64,9.32-7.15,15.92-15.65,20.08c-6.37,3.11-6.35,3.16-2.68,8.99
			c7.16,11.38,14.32,22.76,21.87,34.75c-1.57,0.28-2.65,0.61-3.74,0.65c-5.05,0.16-10.1,0.12-15.14,0.39
			c-3.14,0.17-5.05-1.13-6.64-3.73c-6.69-10.96-13.65-21.75-20.2-32.8c-2.1-3.53-4.51-5.02-8.6-4.86
			c-7.15,0.27-14.31,0.05-21.47,0.1c-5.35,0.04-5.37,0.08-5.4,5.77C1054.97,939.73,1055,946.05,1055.01,953z M1112.64,889.09
			c-1.32-5.51-4.47-9.54-9.88-11.37c-2.56-0.87-5.33-1.47-8.02-1.51c-12-0.18-23.99-0.16-35.99-0.11c-3.61,0.01-4.03,0.45-4.07,4.01
			c-0.08,9.27-0.07,18.54-0.01,27.81c0.02,2.97,0.35,3.32,3.27,3.33c12.42,0.04,24.85,0.32,37.25-0.12
			C1105.94,910.75,1115.27,905.4,1112.64,889.09z"/>
		<path class="st1" d="M638.4,892.34c9.69-7.14,20.33-9.76,31.72-10.11c9.5-0.3,18.89,0.48,28.21,2.36
			c3.29,0.66,6.68,0.82,9.97,1.44c4.08,0.77,4.25,1.11,4.44,5.47c0.05,1.05,0.03,2.11,0.03,3.16c0.01,22.55,0.07,45.1-0.02,67.65
			c-0.01,3.54-0.48,7.13-1.19,10.61c-2.06,10.1-8.26,16.82-17.68,20.64c-6.13,2.49-12.62,3.23-19.15,3.58
			c-11.82,0.62-23.56-0.38-35.25-1.95c-3.6-0.48-4.2-1.21-4.28-4.92c-0.07-3.16-0.05-6.32,0.05-9.48c0.09-2.77,0.81-3.32,3.45-2.88
			c4.35,0.72,8.69,1.53,13.05,2.2c10.04,1.56,20.09,1.68,30.08-0.36c6.98-1.43,11.63-7.08,11.53-13.77
			c-0.04-2.74-0.84-3.34-3.56-2.31c-9.62,3.68-19.52,4.88-29.75,3.86c-6.84-0.68-13.16-2.87-18.88-6.61
			c-8.97-5.87-13.92-14.46-15.85-24.84c-1.64-8.83-1.32-17.68,1.3-26.28C628.71,903,632.78,897.36,638.4,892.34z M680.52,950.63
			c3.23-0.92,6.49-1.74,9.67-2.79c2.4-0.79,3.71-2.41,3.67-5.21c-0.15-12.02-0.12-24.03-0.24-36.05c-0.03-3.27-0.63-4.08-3.77-4.92
			c-9.46-2.54-19-3.27-28.65-0.93c-8.21,1.99-13.54,7.17-14.94,15.3c-0.95,5.51-1.01,11.45-0.06,16.95
			c1.42,8.15,6.23,14.08,14.62,16.58C666.98,951.4,673.12,952.25,680.52,950.63z"/>
		<path class="st1" d="M998.25,862.18c13.46,5.8,18.41,16.65,19.28,29.89c0.42,6.3,0.03,12.54-2.08,18.71
			c-3.27,9.56-9.71,15.57-19,18.82c-5,1.75-10.17,2.63-15.5,2.6c-10.32-0.06-20.65-0.03-30.97-0.04c-0.84,0-1.69-0.02-2.53,0
			c-4.56,0.11-4.65,0.12-4.66,4.6c-0.04,9.28,0.07,18.56,0.03,27.84c-0.01,3.7-0.25,3.92-3.98,3.98c-4.42,0.07-8.85-0.04-13.27-0.02
			c-2.06,0.01-3.13-0.86-3.07-3.01c0.05-1.69-0.03-3.37-0.03-5.06c-0.01-31.42-0.01-62.84-0.02-94.26c0-7.33-0.32-6.92,6.83-6.91
			c18.33,0.01,36.66,0.07,54.98,0.05C988.98,859.34,993.47,860.19,998.25,862.18z M962.62,876.02c-5.26,0.01-10.52-0.04-15.77,0.05
			c-3.76,0.06-4.05,0.32-4.07,3.89c-0.06,10.31-0.05,20.63,0,30.94c0.02,3.94,0.11,4.03,3.79,4.05c9.25,0.04,18.51,0.09,27.76-0.07
			c3.13-0.05,6.32-0.44,9.36-1.17c6.87-1.64,11.76-5.71,13.21-12.85c0.79-3.91,0.57-7.95-0.72-11.85
			c-1.92-5.84-5.88-9.7-11.64-11.48c-2.77-0.86-5.76-1.17-8.68-1.34C971.88,875.93,967.88,876.06,962.62,876.02z"/>
		<path class="st1" d="M806.14,886.09c8.46,5.69,12.81,13.26,12.95,23.03c0.27,18.54,0.45,37.08,0.59,55.62
			c0.02,3.3-0.4,3.65-3.61,3.73c-4.21,0.09-8.42-0.01-12.63,0.02c-2.12,0.01-3.03-1.04-3.02-3.09c0.01-3.16-0.05-6.32-0.05-9.49
			c-0.01-12.02-0.09-24.03,0.01-36.05c0.11-13.64-5.48-19.72-20.19-19.73c-4.82-0.01-9.67,0.55-14.44,1.27
			c-5.74,0.86-6.16,1.57-6.15,7.36c0.02,17.5,0.07,34.99,0.07,52.49c0,8.5,1.01,7.61-7.86,7.59c-2.11-0.01-4.21,0.02-6.32-0.01
			c-5.4-0.08-5.46-0.08-5.46-5.77c-0.03-33.73-0.03-67.46-0.04-101.19c0-1.05-0.01-2.11,0.09-3.16c0.16-1.74,1.13-2.59,2.92-2.6
			c4.42-0.02,8.84-0.16,13.26-0.15c2.93,0.01,3.25,0.29,3.28,3.25c0.08,7.17,0.03,14.33,0.05,21.5c0.01,2.06,0.07,4.12,0.11,6.49
			c6.5-1.44,12.38-2.89,18.32-4.04C787.49,881.36,796.83,881.48,806.14,886.09z"/>
		<path class="st1" d="M853.26,921.38c0-5.69,0.06-10.75-0.04-15.81c-0.08-4.04-0.45-4.38-4.31-4.53c-2.52-0.1-5.05-0.05-7.58-0.07
			c-1.52-0.01-2.44-0.89-2.46-2.3c-0.05-3.78,0.02-7.57,0.17-11.35c0.06-1.43,1.04-2.25,2.52-2.27c2.95-0.04,5.89-0.05,8.84-0.06
			c1.79-0.01,2.74-0.86,2.71-2.69c-0.05-3.79-0.09-7.58-0.18-11.37c-0.04-1.47-0.29-2.94-0.29-4.41c0-1.96,0.88-3.18,3.02-3.19
			c4.63-0.04,9.26-0.1,13.89-0.16c1.82-0.02,2.65,0.88,2.64,2.7c-0.03,5.06-0.09,10.12-0.01,15.17c0.05,3.63,0.26,3.88,4.04,3.92
			c6.53,0.08,13.05-0.06,19.58-0.03c3.66,0.02,3.86,0.24,3.98,3.95c0.09,2.74,0.15,5.48,0.06,8.22c-0.09,2.77-0.58,3.38-3.35,3.5
			c-4.2,0.18-8.43-0.05-12.63,0.17c-3.7,0.19-7.53-0.96-11.09,0.89c-0.21,3.53-0.57,7.06-0.6,10.59
			c-0.07,7.59-0.08,15.18,0.09,22.76c0.06,2.7,0.45,5.45,1.12,8.07c1.54,6.05,3.93,8.33,10.06,8.54c4.14,0.14,8.32-0.79,12.47-1.33
			c2.31-0.3,3.2,0.07,3.36,2.32c0.27,3.99,0.4,8,0.28,11.99c-0.03,1-1.04,2.59-1.93,2.86c-11.21,3.5-22.32,3.98-33.06-1.76
			c-4.99-2.66-7.77-7.13-9.19-12.32c-1.1-4.03-1.76-8.25-1.98-12.42C853.07,934.67,853.28,928.33,853.26,921.38z"/>
		<path class="st1" d="M967.33,700.24c-2.95,2.55-5.91,4.12-9.29,4.72c-9.85,1.76-18.07-3.09-21.93-12.88
			c-3.17-8.03-0.06-18.88,7.49-23.38c3.75-2.23,4.46-4.81,4.43-8.68c-0.13-20.84-0.07-41.69-0.05-62.54
			c0.01-5.94,0.06-5.95,5.82-5.99c7.31-0.06,7.11-0.56,7.11,7.29c-0.01,20.85,0.07,41.69-0.02,62.54c-0.01,3.05,0.83,4.89,3.61,6.53
			c8.38,4.96,11.64,14.8,8.03,24.06C971.41,694.78,969.32,697.27,967.33,700.24z M960.1,681.07c-0.96-0.79-1.85-1.72-2.91-2.35
			c-2.48-1.46-4.82-0.93-6.94,0.86c-2.59,2.19-2.72,5.1-2.11,8.08c0.52,2.55,2.67,4.19,5.4,4.53c2.75,0.35,4.96-0.64,6.63-2.77
			C962.07,687.04,962.26,684.47,960.1,681.07z"/>
		<path class="st1" d="M947.99,320.21c0-4.84-0.07-9.06,0.04-13.27c0.07-2.59-0.92-4.26-3.12-5.7c-2.25-1.48-4.59-3.2-6.1-5.36
			c-4.71-6.77-5.33-14.41-1.63-21.57c3.84-7.42,10.52-11.32,19.19-10.85c6.42,0.35,11.04,3.83,14.44,8.97
			c7.23,10.94,2.28,24.35-6.31,28.55c-3.33,1.63-3.67,4.06-3.66,7.21c0.09,19.59,0.09,39.18,0.07,58.77
			c-0.01,8.67,0.91,7.83-8.37,7.92c-0.84,0.01-1.81,0.18-2.48-0.17c-0.79-0.43-1.7-1.26-1.89-2.08c-0.33-1.4-0.16-2.93-0.16-4.4
			C948.01,352.44,948,336.64,947.99,320.21z M961.18,281.25c-3.31-4.82-6.54-6.06-10.32-3.94c-2.69,1.51-4.29,4.65-3.75,7.36
			c0.64,3.2,3.31,5.84,6.31,6.23c3.11,0.41,5.78-0.9,7.15-3.96C961.22,285.49,961.21,283.74,961.18,281.25z"/>
		<path class="st1" d="M602.97,927.7c0.02,12,0.04,23.37,0.08,34.73c0.02,6.37,0.34,6.06-6.27,6.03c-3.36-0.01-6.73-0.04-10.09-0.01
			c-2.11,0.02-3.06-0.98-3-3.05c0.03-0.84-0.03-1.68-0.03-2.53c-0.01-24-0.01-48-0.01-71.99c0-1.05,0.03-2.1,0.04-3.16
			c0.01-1.86,1.03-2.6,2.79-2.61c4.42-0.01,8.83-0.13,13.25-0.06c2.82,0.04,3.11,0.35,3.15,3.48c0.09,8.63,0.08,17.26,0.09,25.89
			C602.98,918.65,602.97,922.86,602.97,927.7z"/>
		<path class="st1" d="M1054.56,620.95c2.16-7.06,5.77-12.25,12.45-14.74c9.61-3.58,20.38,0.69,24.55,9.69
			c4.54,9.78,1.44,20.55-7.47,25.92c-11.21,6.77-25.14,2.23-28.95-9.78C1054.1,628.77,1054.63,625.01,1054.56,620.95z
			 M1080.72,623.69c-1.03-1.52-1.82-3.31-3.14-4.5c-2.25-2.01-5.14-1.89-7.51-0.16c-2.74,2-4,4.9-3.28,7.55
			c0.88,3.25,2.97,4.95,6.28,5.14C1077.66,631.97,1079.42,630.38,1080.72,623.69z"/>
		<path class="st1" d="M1056.61,336.67c2.16-3.55,4.79-5.93,8.04-7.61c7.29-3.79,14.43-3.04,20.82,1.72
			c6.87,5.13,9.23,12.43,7.58,20.79c-1.99,10.1-10.92,16.42-21.41,15.49c-10.07-0.89-17.15-8.59-17.57-19.01
			C1053.9,344.18,1054.27,340.46,1056.61,336.67z M1073.81,339.58c-2.84-0.21-4.81,1.39-6.22,3.5c-0.87,1.3-1.57,3.06-1.5,4.57
			c0.2,3.88,3.78,6.8,7.66,6.7c3.63-0.09,6.58-2.88,7.03-6.65C1081.28,343.52,1080.15,342.03,1073.81,339.58z"/>
		<path class="st1" d="M907.28,1047.67c-0.92,1.95-1.52,3.54-2.34,5c-1.23,2.16-3.52,2.49-5.19,0.71c-0.84-0.89-1.41-2.07-1.93-3.2
			c-1.32-2.86-2.52-5.79-3.83-8.66c-0.39-0.85-1.01-1.58-2.08-3.21c-1.17,3.32-0.72,5.78-0.79,8.16c-0.09,3.16-0.09,6.32-0.05,9.47
			c0.03,1.83-0.72,2.69-2.58,2.74c-2.76,0.08-3.85-0.54-3.94-2.79c-0.12-2.94-0.07-5.9-0.02-8.84c0.12-6.52,0.25-13.04,0.45-19.56
			c0.05-1.57-0.61-3.56,1.66-4.23c3.12-0.91,5.58-0.03,6.91,2.56c1.92,3.75,3.69,7.57,5.58,11.33c0.82,1.62,1.78,3.16,3.04,5.35
			c1.09-1.81,1.95-2.95,2.51-4.22c1.71-3.85,3.21-7.78,4.97-11.61c1.54-3.36,5-4.67,8.36-3.15c0.72,0.32,1.37,1.59,1.42,2.46
			c0.17,2.73,0.06,5.47,0.02,8.21c-0.11,7.16-0.19,14.31-0.37,21.46c-0.07,2.6-0.81,3.12-3.61,3.02c-2.47-0.09-3.1-0.56-3.15-2.88
			c-0.08-3.58,0.04-7.16-0.03-10.74c-0.02-1.12-0.39-2.24-0.73-4.01C909.16,1043.04,908.62,1045.35,907.28,1047.67z"/>
		<path class="st1" d="M542.86,1030.51c0.03,8.38,0.07,16.18,0.06,23.98c0,1.41,0.43,3.05-1.34,3.86c-2.03,0.92-4.98,0.36-6.29-1.33
			c-1.28-1.66-2.37-3.48-3.56-5.21c-3.2-4.65-6.4-9.3-10.31-14.98c-0.45,2.21-0.83,3.25-0.84,4.29c-0.03,4.83,0.15,9.66,0.04,14.49
			c-0.06,2.71-0.78,3.17-3.49,3.08c-2.68-0.09-3.32-0.6-3.33-3.41c-0.04-9.48,0.03-18.96,0.06-28.45c0-1.51,0.01-3.13,1.91-3.47
			c1.84-0.33,3.83-0.68,5.22,1.15c1.02,1.34,1.94,2.75,2.91,4.13c3.61,5.13,7.21,10.26,11.55,16.42c0.4-2.02,0.7-2.86,0.71-3.7
			c0.04-5.06-0.04-10.11,0.02-15.17c0.03-2.48,0.7-3.11,2.86-3.16c2.59-0.06,3.47,0.62,3.74,3.1
			C542.94,1027.39,542.85,1028.66,542.86,1030.51z"/>
		<path class="st1" d="M497,1057.91c-5.25-6.73-9.33-13.81-15.51-20.67c-0.14,2.89-0.28,4.68-0.3,6.47
			c-0.04,3.79,0.07,7.58-0.03,11.37c-0.08,3.1-2.94,4.67-5.64,3.14c-0.48-0.27-0.93-0.88-1.08-1.42c-0.21-0.79-0.19-1.66-0.18-2.5
			c0.02-8.84,0.05-17.68,0.1-26.52c0.01-1.63-0.37-3.5,1.65-4.35c2.04-0.85,4.56-0.09,6.17,1.87c0.66,0.81,1.16,1.76,1.77,2.61
			c2.82,3.93,5.64,7.86,8.51,11.75c1.09,1.47,2.33,2.82,4.26,5.13c0.69-4.37,0.41-7.63,0.48-10.84c0.06-2.74,0.01-5.47,0.01-8.21
			c0-1.76,0.73-2.74,2.63-2.73c2.87,0.01,4.07,0.62,4.16,2.65c0.13,3.15,0.04,6.31,0.03,9.47c-0.01,6.32,0.03,12.63-0.05,18.95
			c-0.06,4.21-0.45,4.52-4.81,4.55C498.56,1058.62,497.95,1058.35,497,1057.91z"/>
		<path class="st1" d="M556.1,1026.33c4.12-3.5,8.62-4.34,13.3-3.75c9.48,1.19,16.49,10.37,15.06,19.84
			c-0.46,3.05-1.37,6.25-2.94,8.87c-3.39,5.67-8.67,8.23-15.38,7.72c-6.37-0.48-11.11-3.15-13.88-9.17
			C548.33,1041.27,549.27,1033.57,556.1,1026.33z M559.61,1048.67c3,3.88,6.98,4.6,11.3,3.01c4.5-1.66,6.17-5.52,6.39-10
			c0.09-1.85-0.13-3.82-0.7-5.58c-1.77-5.46-5.58-7.83-11.07-7.18c-4.25,0.5-7.59,4.16-8.16,9.14
			C556.98,1041.46,557.16,1044.81,559.61,1048.67z"/>
		<path class="st1" d="M1191.24,1040.35c-0.01-4.83-0.12-9.04-0.01-13.24c0.08-3.18,0.7-3.91,3.57-4c4.2-0.13,8.4-0.02,12.6,0.05
			c0.83,0.01,1.66,0.25,2.47,0.45c4.51,1.1,7.7,3.88,8.25,8.47c0.5,4.13-0.98,7.89-4.92,10.16c-0.72,0.42-1.42,0.87-2.39,1.47
			c1.55,5.32,6.23,8.79,8.25,13.78c-5.55,1.92-6.62,1.64-9.66-2.51c-1.61-2.2-3.12-4.47-4.76-6.65c-0.74-0.99-1.57-2-2.56-2.71
			c-1.81-1.29-3.78-0.27-3.95,2c-0.13,1.67-0.04,3.36-0.06,5.04c-0.05,5.42-0.32,5.91-3.27,5.95c-3.27,0.04-3.62-0.53-3.63-6.29
			C1191.17,1048.55,1191.21,1044.76,1191.24,1040.35z M1203.87,1038.95c1.24-0.18,2.56-0.14,3.69-0.59
			c2.13-0.85,3.29-2.56,3.19-4.93c-0.08-1.95-1.67-3.57-4.22-3.98c-1.85-0.3-3.76-0.24-5.65-0.26c-2.08-0.03-3.03,1.18-3.1,3.15
			c-0.05,1.47-0.08,2.94-0.01,4.41c0.07,1.54,1.06,2.16,2.51,2.17C1201.12,1038.92,1201.96,1038.93,1203.87,1038.95z"/>
		<path class="st1" d="M706.37,1037.35c2.29,0,3.97-0.01,5.65-0.01c1.95,0.01,3.21,0.76,3.26,2.93c0.06,2.29-0.73,3.1-3.58,3.18
			c-2.73,0.08-5.47-0.11-8.19,0c-2.64,0.1-3.29,0.88-3.05,3.57c0.36,4.04,0.59,4.97,4.75,4.88c3.36-0.08,6.73-0.1,10.09,0.01
			c2.19,0.07,2.67,0.79,2.68,3.33c0.01,2.54-0.45,3.33-2.62,3.37c-6.3,0.09-12.61,0.02-18.91,0.03c-2.12,0-3.02-1.07-2.98-3.13
			c0.05-2.52,0.07-5.05,0.07-7.57c0.01-6.72-0.06-13.44,0.05-20.16c0.07-4.25,0.47-4.59,4.81-4.66c5.46-0.1,10.93-0.13,16.39-0.07
			c2.38,0.03,3,0.78,3.04,3.01c0.04,2.29-0.61,3.29-2.72,3.41c-3.35,0.19-6.72,0.07-10.08,0.19c-3.53,0.14-4.05,0.61-4.22,3.26
			c-0.21,3.35,0.26,3.83,4.34,4.44C705.34,1037.36,705.55,1037.34,706.37,1037.35z"/>
		<path class="st1" d="M1238.85,1043.43c-2.93-0.11-3.99,0.9-4.07,3.32c-0.15,4.6,0.18,5.11,4.7,5.17c3.15,0.05,6.3-0.09,9.45-0.06
			c3.17,0.03,3.8,0.66,3.85,3.53c0.04,2.55-0.48,3.14-3.45,3.18c-6.3,0.08-12.61,0.04-18.91,0.05c-1.77,0-2.73-0.79-2.73-2.65
			c0.01-10.1,0-20.19,0-30.29c0-1.84,1.03-2.63,2.78-2.64c6.51-0.03,13.03-0.11,19.54-0.05c2.13,0.02,2.74,0.95,2.69,3.32
			c-0.05,2.34-0.62,3.11-2.9,3.18c-3.78,0.11-7.57-0.06-11.34,0.1c-1.13,0.05-3.04,0.63-3.18,1.26c-0.37,1.73-0.12,3.65,0.2,5.44
			c0.08,0.44,1.36,0.9,2.1,0.93c2.94,0.13,5.88,0.01,8.82,0.14c2.41,0.11,3.04,0.86,3.05,3.05c0.01,2.14-0.7,2.93-3.07,3.02
			C1244.09,1043.55,1241.77,1043.45,1238.85,1043.43z"/>
		<path class="st1" d="M757.88,1033.58c2.98-7.57,8.39-10.84,15.83-10.87c9.06-0.04,15.32,5.24,16.77,13.91
			c1.62,9.69-3.03,19.06-11.18,21.66c-10.39,3.31-21.44-2.23-22.68-14.92C756.33,1040.31,757.32,1037.14,757.88,1033.58z
			 M783.45,1044.1c0.01-2.3,0.35-4.66-0.05-6.89c-1.06-5.96-5.6-9.08-11.41-8.18c-4.48,0.7-7.55,4.31-8.33,9.81
			c-0.76,5.33,1.44,10.94,5.01,12.73c0.37,0.19,0.79,0.29,1.18,0.43C775.55,1053.98,779.98,1051.72,783.45,1044.1z"/>
		<path class="st1" d="M983.73,1042.87c-0.03-5.68-0.09-10.74-0.02-15.79c0.04-3.42,0.38-3.85,3.43-3.91
			c5.89-0.12,11.78-0.14,17.67-0.05c2.25,0.03,2.78,0.85,2.74,3.26c-0.04,2.38-0.53,3.02-2.91,3.11c-3.57,0.13-7.15,0.01-10.73,0.15
			c-2.75,0.11-3.32,0.8-3.36,3.4c-0.05,3.17,0.54,4.04,3.24,4.19c2.73,0.15,5.47-0.02,8.2,0.17c2.22,0.15,3.59,2.49,2.72,4.62
			c-0.25,0.62-1.17,1.33-1.83,1.37c-2.51,0.17-5.04,0.04-7.56,0.1c-4.33,0.11-4.76,0.56-4.68,4.65c0.06,3.2,0.37,3.6,3.61,3.71
			c3.78,0.12,7.57,0.1,11.36,0.11c2.32,0,2.71,1.53,2.77,3.36c0.07,2.26-0.56,3.18-2.84,3.23c-6.31,0.13-12.62,0.07-18.93,0.11
			c-2.17,0.02-2.97-1.13-2.94-3.16C983.71,1051.5,983.72,1047.5,983.73,1042.87z"/>
		<path class="st1" d="M1103.07,1023.06c3.38,0.1,3.25,2.05,3.11,4.03c-0.14,1.88-1.32,2.47-2.99,2.47
			c-3.37,0.01-6.74-0.1-10.09,0.09c-1.1,0.06-2.97,0.77-3.09,1.43c-0.32,1.75-0.07,3.7,0.4,5.45c0.13,0.5,1.8,0.77,2.78,0.81
			c2.52,0.1,5.05-0.08,7.57,0.04c2.17,0.1,2.63,1.67,2.66,3.55c0.02,1.87-0.87,2.69-2.67,2.66c-2.52-0.03-5.05-0.14-7.57-0.06
			c-2.83,0.09-3.37,0.68-3.51,3.31c-0.23,4.28,0.42,4.97,5.01,5.05c3.15,0.06,6.31,0.04,9.47,0.01c1.74-0.01,2.74,0.59,2.79,2.53
			c0.06,2.84-0.49,4.04-2.68,4.09c-6.31,0.14-12.62,0.11-18.93,0.1c-1.85,0-2.55-1.18-2.54-2.9c0.04-9.9,0.08-19.79,0.11-29.69
			c0.01-2.16,1.25-2.97,3.22-2.97C1091.57,1023.06,1097.04,1023.06,1103.07,1023.06z"/>
		<path class="st1" d="M1178.78,1052.03c-5.58,7.28-13.23,9.16-20.9,5.46c-3.69-1.77-6.21-4.82-6.42-8.79
			c-0.42-7.77-0.29-15.58-0.21-23.37c0.02-2.32,2.06-2.27,3.78-2.3c1.6-0.03,3.04,0.28,3.25,2.18c0.16,1.46,0.1,2.94,0.12,4.42
			c0.04,5.27-0.14,10.55,0.17,15.81c0.36,6.09,5.96,8.99,11.44,6.16c2.57-1.33,3.29-3.74,3.38-6.36c0.19-5.48,0.27-10.96,0.4-16.44
			c0.03-1.26-0.03-2.54,0.16-3.78c0.3-1.92,1.8-2.08,3.37-1.99c1.51,0.09,3.3,0.26,3.25,2.19c-0.23,8.19,1.03,16.44-1.04,24.55
			C1179.36,1050.38,1179.17,1050.98,1178.78,1052.03z"/>
		<path class="st1" d="M947.47,1058.17c-1.88-2.89,0.18-4.58,1.45-6.37c3.78-5.32,7.7-10.55,11.53-15.84
			c1.2-1.66,2.89-3.13,2.58-5.88c-1.38-0.16-2.76-0.43-4.16-0.47c-2.74-0.08-5.48,0.07-8.21-0.06c-2.81-0.13-3.65-1.21-3.52-4.01
			c0.07-1.46,0.68-2.51,2.2-2.51c7.58,0.02,15.16,0.07,22.74,0.21c1.78,0.03,2.73,1.34,2.25,2.99c-0.4,1.38-1.04,2.76-1.86,3.93
			c-3.86,5.52-7.85,10.97-11.74,16.47c-0.94,1.33-1.71,2.78-2.99,4.89c1.99,0.2,3.32,0.43,4.66,0.46c2.95,0.06,5.9-0.04,8.85,0.04
			c2.94,0.08,3.67,1.02,3.4,3.89c-0.16,1.76-1,2.69-2.8,2.68c-1.05-0.01-2.11,0.02-3.16,0.01
			C961.74,1058.55,954.79,1058.47,947.47,1058.17z"/>
		<path class="st1" d="M1060.62,1052.22c2.88-0.02,5.36,0.15,6.28-2.7c0.6-1.86-1.06-3.44-4.83-4.84c-2.75-1.02-5.6-1.83-8.21-3.13
			c-2.67-1.32-4.83-3.28-5.41-6.54c-0.97-5.45,1.6-10.05,7.02-11.77c5.25-1.66,10.39-0.87,15.25,1.59c2.06,1.04,2.31,4.11,0.53,5.8
			c-0.37,0.35-1.19,0.55-1.68,0.41c-1.4-0.41-2.71-1.22-4.12-1.53c-1.82-0.4-3.72-0.69-5.57-0.64c-1.98,0.06-3.79,0.93-4.18,3.14
			c-0.43,2.44,1.54,3.31,3.28,3.96c2.74,1.03,5.66,1.6,8.38,2.68c6.16,2.44,8.2,7.54,5.99,13.78c-0.94,2.66-2.74,4.28-5.12,5.19
			c-5.76,2.2-11.56,1.86-17.15-0.62c-2.7-1.2-3.24-3.01-2.13-5.68c0.65-1.55,1.68-2.51,3.4-1.38
			C1054.7,1051.49,1057.24,1052.29,1060.62,1052.22z"/>
		<path class="st1" d="M823.06,1027.71c1.67,2.34,2.33,4.47,2.21,6.89c-0.27,5.52-2.37,8.68-7.69,10.21
			c-2.97,0.85-6.18,0.98-9.29,1.23c-2.04,0.16-3.11,0.92-3.02,3.05c0.09,2.1,0.14,4.19,0.2,6.29c0.07,2.78-0.36,3.22-3.19,3.3
			c-3.35,0.09-3.95-0.43-3.96-3.97c-0.03-9.03-0.02-18.06,0.06-27.08c0.03-4.07,0.33-4.37,4.23-4.5c3.56-0.11,7.14-0.14,10.69,0.02
			C816.95,1023.3,820.36,1024.24,823.06,1027.71z M805.25,1035.76c-0.01,1.76,0.14,3.41,2.51,3.41c2.07-0.01,4.16,0.1,6.22-0.09
			c2.3-0.21,4.31-2.29,4.43-4.51c0.12-2.15-1.27-3.75-3.08-4.2c-2.76-0.7-5.66-0.85-8.52-1.02c-0.48-0.03-1.34,0.94-1.47,1.56
			C805.1,1032.1,805.24,1033.38,805.25,1035.76z"/>
		<path class="st1" d="M631.31,1034.39c1.3-3.16,2.55-5.83,3.55-8.59c0.78-2.13,2.19-2.83,4.33-2.82c2.19,0,3.49,0.94,4.28,2.96
			c2.23,5.66,4.56,11.28,6.84,16.92c1.73,4.28,3.48,8.55,5.14,12.85c0.72,1.86,0.04,2.76-1.96,2.9c-3.46,0.24-4.25-0.22-5.79-3.49
			c-0.36-0.76-0.63-1.56-0.94-2.34c-1.71-4.4-5.58-2.77-8.69-2.99c-2.65-0.19-5.61-0.65-6.75,2.93c-0.38,1.19-0.95,2.33-1.43,3.49
			c-0.62,1.52-1.72,2.28-3.36,2.38c-3.03,0.19-4.66-0.52-3.3-3.85C625.92,1048.13,628.51,1041.48,631.31,1034.39z M641.56,1037.53
			c-0.63-1.78-0.75-3.81-2.64-5.58c-1.06,4.26-3.44,7.5-3.91,11.59c2.97,0,5.39,0,8.36,0
			C642.77,1041.56,642.31,1040.01,641.56,1037.53z"/>
		<path class="st1" d="M607.97,1040.03c1.57-4.19,2.9-7.96,4.35-11.67c1.66-4.24,1.11-5.96,8.59-4.67c-0.09,0.75-0.04,1.57-0.3,2.27
			c-3.72,9.83-7.55,19.61-11.18,29.47c-0.88,2.38-2.25,3.24-4.67,3.25c-2.26,0.01-3.37-0.96-4.15-3.02
			c-2.6-6.88-5.33-13.72-8.04-20.56c-1.16-2.93-2.45-5.81-3.57-8.75c-0.81-2.14-0.04-3.1,2.31-3.15c3.65-0.07,4.2,0.23,5.56,3.71
			c2.52,6.44,4.96,12.91,7.56,19.7C606.75,1044.88,606.78,1042.41,607.97,1040.03z"/>
		<path class="st1" d="M1134.69,1052.04c1.69-0.53,2.95-0.84,4.01-1.47c1.74-1.04,3.05-1.11,4.12,0.89
			c1.24,2.32,1.21,3.54-0.63,4.96c-0.98,0.76-2.11,1.55-3.28,1.78c-7.92,1.58-16.28,1-21.29-5.56c-5.11-6.69-4.03-17.47-0.06-23.15
			c4.65-6.65,16.34-9.27,23.27-5.07c1.94,1.18,2.4,2.52,1.62,4.83c-0.55,1.65-1.5,2.32-3.34,1.77c-2.39-0.7-4.84-1.52-7.29-1.62
			c-5.76-0.23-10,3.63-10.63,9.34C1120.29,1047.03,1126.11,1054.21,1134.69,1052.04z"/>
		<path class="st1" d="M667.95,1049.05c0-5.23,0.06-9.86-0.03-14.48c-0.09-4.56-0.22-4.64-4.51-4.87c-1.26-0.07-2.55,0.09-3.77-0.16
			c-0.92-0.2-2.34-0.75-2.48-1.38c-0.3-1.32-0.08-2.85,0.32-4.18c0.14-0.48,1.4-0.88,2.15-0.89c7.77-0.03,15.54-0.03,23.31,0.09
			c2.31,0.04,3,0.96,3.01,3.13c0.01,2.15-0.69,2.91-2.98,3.23c-0.21,0.03-0.42,0.03-0.63,0.05c-2.26,0.22-4.53,0.45-6.79,0.67
			c-0.31,2.66-0.82,5.31-0.88,7.97c-0.13,5.46,0.03,10.93,0,16.4c-0.02,3.34-1.51,4.66-4.6,3.92c-0.79-0.19-1.86-1.23-1.95-1.98
			C667.83,1054.3,667.97,1051.97,667.95,1049.05z"/>
		<path class="st1" d="M857.58,1029.51c-0.94,0.09-1.37,0.06-1.78,0.1c-2.26,0.22-5.28-0.33-6.54,0.92
			c-1.19,1.18-0.6,4.24-0.66,6.47c-0.15,6.3-0.19,12.61-0.35,18.91c-0.06,2.32-1.05,2.97-3.82,2.83c-2.26-0.11-2.78-0.71-2.75-3.17
			c0.07-6.09,0.17-12.19,0.2-18.28c0.01-1.67-0.13-3.36-0.31-5.02c-0.19-1.72-1.27-2.6-2.97-2.62c-1.68-0.02-3.36-0.02-5.03,0.12
			c-2.14,0.19-3.08-0.86-3.34-2.83c-0.37-2.79,0.52-3.98,3.3-3.99c7.35-0.03,14.7,0.03,22.05,0.07c1.43,0.01,3.21-0.36,3.76,1.45
			C859.88,1026.24,860.29,1028.23,857.58,1029.51z"/>
		<path class="st1" d="M593.02,856.82c2.88-0.02,5.18-0.06,7.48-0.07c1.92-0.01,3.21,0.68,3.21,2.89
			c-0.01,4.18,0.04,8.37,0.07,12.55c0.01,1.77-0.92,2.82-2.63,2.85c-4.8,0.09-9.62,0.16-14.42,0.02c-2.52-0.07-3.08-0.82-3.33-3.6
			c-0.17-1.87-0.21-3.77-0.12-5.64c0.13-2.89,0.43-5.77,0.65-8.65C586.77,857.05,589.6,856.94,593.02,856.82z"/>
		<path class="st1" d="M937.76,1041.61c0.02,5.03,0.09,9.43,0.03,13.83c-0.04,2.71-0.64,3.19-3.39,3.26
			c-2.8,0.07-3.57-0.44-3.6-3.01c-0.09-7.54-0.05-15.09-0.04-22.63c0-2.09,0.07-4.19,0.17-6.28c0.15-3.24,0.77-3.87,3.54-3.76
			c2.68,0.11,3.2,0.68,3.27,4.13c0.08,3.77,0.02,7.54,0.02,11.32C937.76,1039.3,937.76,1040.14,937.76,1041.61z"/>
		<path class="st1" d="M869.79,1058.62c-1.16-0.71-2.4-1.39-2.41-2.08c-0.11-10.26-0.06-20.53-0.06-30.8c0-2.35,1.57-2.61,3.39-2.64
			c2.62-0.03,3.39,0.37,3.4,2.51c0.05,10.06-0.02,20.11,0,30.17C874.11,1058.55,872.27,1058.66,869.79,1058.62z"/>
		<path class="st1" d="M463.73,1044.13c0,4.4,0.09,8.17-0.02,11.94c-0.06,2.14-0.85,2.61-3.36,2.61c-1.87,0-3.33-0.43-3.33-2.73
			c0.01-4.82-0.01-9.64-0.01-14.46c-0.01-5.03-0.01-10.06-0.02-15.08c-0.01-1.89,0.47-3.28,2.76-3.3c2.99-0.03,3.9,0.61,3.95,3.42
			C463.78,1032.18,463.73,1037.84,463.73,1044.13z"/>
		<path class="st1" d="M727.21,1054.54c0.12-0.65,0.11-0.9,0.24-1.04c2.17-2.44,3.32-2.91,5.09-1.95c1.55,0.84,2.59,2.1,2.4,4
			c-0.18,1.81-1.79,3.11-4,3.2C728.37,1058.84,727.07,1057.59,727.21,1054.54z"/>
		<path class="st1" d="M1263.32,1051.05c1.65,0.53,3.22,0.93,4.01,1.93c1.1,1.4,1.05,3.43-0.53,4.5c-1.05,0.71-2.94,1.13-3.98,0.65
			c-1.04-0.48-2.06-2.25-2.04-3.43C1260.81,1053.52,1262.14,1052.36,1263.32,1051.05z"/>
		<path class="st1" d="M1021.38,1057.77c-1.33,0.44-2.34,0.71-3.35,0.69c-1.52-0.03-2.16-1.1-2.24-2.48
			c-0.16-2.75,1.57-5.03,3.64-4.92c1.79,0.1,2.97,1.87,2.98,4.72C1022.41,1056.34,1021.95,1056.9,1021.38,1057.77z"/>
		<path class="st1" d="M1107.39,685.99c0,0.02-0.05-0.19-0.04-0.11C1107.36,685.97,1107.39,685.98,1107.39,685.99z"/>
		<path class="st0" d="M1160.21,395.2c0.06,3.71-1.23,6.11-4.35,7.33c-3.49,1.37-7.42-0.01-9.11-3.22
			c-1.42-2.69-0.68-6.67,1.59-8.56c3.08-2.56,6.75-2.54,9.57,0.28C1158.91,392.02,1159.43,393.47,1160.21,395.2z"/>
		<path class="st0" d="M1175.59,513.95c3.1,2.07,4.3,4.56,3.68,7.83c-0.58,3.09-2.4,5-5.27,5.54c-2.89,0.54-5.97-0.89-7.52-3.49
			c-1.56-2.62-1.29-5.97,0.79-8.18C1169.47,513.32,1172,512.15,1175.59,513.95z"/>
		<path class="st0" d="M1012.2,276.88c5.82-0.14,8.61,1.75,9.1,5.71c0.42,3.35-1.09,6.15-4.14,7.69c-2.71,1.37-5.61,0.72-7.89-1.76
			c-2.24-2.44-2.63-5.76-0.71-8.62C1009.35,278.76,1010.69,278,1012.2,276.88z"/>
		<path class="st0" d="M1165.97,456.43c0.71-1.12,1.12-1.9,1.74-2.43c3.22-2.78,6.76-2.77,9.49-0.07c2.78,2.75,2.92,7.26,0.32,10.23
			c-2.21,2.53-7.93,2.41-10.15-0.23C1165.64,461.86,1165.16,459.5,1165.97,456.43z"/>
		<path class="st0" d="M1151.9,570.89c2.27,0.42,4.3,0.52,5.73,1.5c3.19,2.18,3.52,6.57,1.08,9.4c-2.81,3.26-6.57,3.59-9.99,0.88
			c-2.79-2.21-3.37-6.8-0.96-9.44C1148.68,572.21,1150.16,571.7,1151.9,570.89z"/>
		<path class="st0" d="M1010.43,679.82c2.62-2.05,4.97-2.03,7.37-0.72c3.51,1.92,4.97,5.87,3.32,8.92
			c-1.97,3.64-6.11,5.17-9.52,3.51c-3.68-1.79-4.95-5.6-3.08-9.42C1008.88,681.38,1009.54,680.8,1010.43,679.82z"/>
		<path class="st0" d="M1246.21,916.16c-0.17,8.26-1.48,15.59-5.48,22.33c-3.5,5.91-8.47,9.78-14.87,11.99
			c-7.3,2.52-14.84,2.88-22.41,2.12c-3.94-0.4-7.92-1.15-11.71-2.32c-8.58-2.66-14.41-8.37-17.35-16.94
			c-1.65-4.8-2.77-9.67-2.61-14.81c0.14-4.42-0.28-8.87,0.12-13.25c1.98-21.81,12.67-28.01,28.56-30.27
			c7.04-1,14.27-0.64,21.33,1.01c10.91,2.54,18.35,8.87,21.87,19.64C1245.77,902.13,1246.48,908.78,1246.21,916.16z"/>
		<path class="st0" d="M1112.79,889.58c2.48,15.82-6.85,21.17-17.6,21.55c-12.4,0.44-24.83,0.16-37.25,0.12
			c-2.92-0.01-3.25-0.36-3.27-3.33c-0.06-9.27-0.07-18.54,0.01-27.81c0.03-3.56,0.46-4,4.07-4.01c12-0.05,24-0.07,35.99,0.11
			c2.69,0.04,5.46,0.65,8.02,1.51C1108.17,879.55,1111.32,883.58,1112.79,889.58z"/>
		<path class="st0" d="M679.98,950.66c-6.86,1.59-13,0.74-19.15-1.1c-8.38-2.5-13.2-8.43-14.62-16.58
			c-0.95-5.5-0.9-11.44,0.06-16.95c1.41-8.13,6.74-13.31,14.94-15.3c9.65-2.34,19.18-1.6,28.65,0.93c3.14,0.84,3.73,1.65,3.77,4.92
			c0.12,12.02,0.09,24.03,0.24,36.05c0.03,2.79-1.28,4.41-3.67,5.21C687.01,948.88,683.75,949.7,679.98,950.66z"/>
		<path class="st0" d="M963.25,876.02c4.63,0.03,8.63-0.1,12.61,0.14c2.91,0.17,5.91,0.48,8.68,1.34
			c5.76,1.79,9.72,5.64,11.64,11.48c1.28,3.9,1.51,7.94,0.72,11.85c-1.45,7.15-6.34,11.21-13.21,12.85
			c-3.04,0.73-6.23,1.12-9.36,1.17c-9.25,0.16-18.5,0.11-27.76,0.07c-3.68-0.02-3.77-0.11-3.79-4.05c-0.05-10.31-0.06-20.63,0-30.94
			c0.02-3.56,0.31-3.82,4.07-3.89C952.1,875.98,957.36,876.03,963.25,876.02z"/>
		<path class="st0" d="M960.37,681.45c1.88,3.02,1.7,5.58-0.19,7.98c-1.67,2.13-3.88,3.12-6.63,2.77c-2.73-0.34-4.88-1.98-5.4-4.53
			c-0.61-2.98-0.48-5.89,2.11-8.08c2.12-1.8,4.46-2.32,6.94-0.86C958.26,679.35,959.14,680.28,960.37,681.45z"/>
		<path class="st0" d="M961.34,281.69c-0.13,2.06-0.12,3.81-0.77,5.26c-1.37,3.05-4.03,4.37-7.15,3.96c-3-0.39-5.68-3.04-6.31-6.23
			c-0.54-2.72,1.06-5.86,3.75-7.36C954.64,275.19,957.87,276.42,961.34,281.69z"/>
		<path class="st0" d="M1080.77,624.18c-1.35,6.19-3.11,7.79-7.7,7.54c-3.31-0.18-5.4-1.89-6.28-5.14
			c-0.72-2.65,0.54-5.55,3.28-7.55c2.37-1.73,5.26-1.85,7.51,0.16C1078.9,620.38,1079.69,622.17,1080.77,624.18z"/>
		<path class="st0" d="M1074.28,339.63c5.87,2.39,7,3.89,6.5,8.06c-0.45,3.77-3.4,6.56-7.03,6.65c-3.88,0.1-7.47-2.82-7.66-6.7
			c-0.08-1.51,0.63-3.27,1.5-4.57C1069,340.97,1070.96,339.37,1074.28,339.63z"/>
		<path class="st0" d="M559.33,1048.26c-2.16-3.45-2.34-6.8-1.96-10.2c0.56-4.98,3.91-8.64,8.16-9.14c5.49-0.65,9.3,1.71,11.07,7.18
			c0.57,1.76,0.79,3.73,0.7,5.58c-0.22,4.48-1.89,8.34-6.39,10C566.59,1053.27,562.61,1052.55,559.33,1048.26z"/>
		<path class="st0" d="M1203.33,1038.95c-1.38-0.01-2.21-0.03-3.05-0.04c-1.45-0.01-2.43-0.63-2.51-2.17
			c-0.07-1.47-0.05-2.94,0.01-4.41c0.07-1.97,1.02-3.17,3.1-3.15c1.89,0.02,3.8-0.03,5.65,0.26c2.56,0.41,4.14,2.03,4.22,3.98
			c0.1,2.37-1.07,4.08-3.19,4.93C1206.43,1038.81,1205.11,1038.77,1203.33,1038.95z"/>
		<path class="st0" d="M783.39,1044.62c-3.41,7.1-7.84,9.36-13.53,7.38c-0.4-0.14-0.81-0.24-1.18-0.43
			c-3.57-1.78-5.77-7.39-5.01-12.73c0.79-5.5,3.85-9.11,8.33-9.81c5.81-0.91,10.35,2.21,11.41,8.18
			C783.8,1039.44,783.46,1041.8,783.39,1044.62z"/>
		<path class="st0" d="M805.24,1035.2c0.01-1.81-0.14-3.09,0.11-4.29c0.13-0.62,0.99-1.59,1.47-1.56c2.86,0.17,5.77,0.32,8.52,1.02
			c1.81,0.46,3.2,2.06,3.08,4.2c-0.12,2.23-2.14,4.3-4.43,4.51c-2.06,0.19-4.15,0.08-6.22,0.09
			C805.39,1039.18,805.24,1037.53,805.24,1035.2z"/>
		<path class="st0" d="M641.7,1038c0.61,2.01,1.07,3.56,1.66,5.54c-2.96,0-5.39,0-8.36,0c0.47-4.08,2.85-7.33,3.91-11.59
			C640.81,1033.72,640.93,1035.76,641.7,1038z"/>
	</g>
</g>
</svg>
